<?xml version="1.0" encoding="utf-8"?>
<!-- Generator: Adobe Illustrator 23.0.3, SVG Export Plug-In . SVG Version: 6.00 Build 0)  -->
<svg version="1.1" id="Слой_1" xmlns="http://www.w3.org/2000/svg" xmlns:xlink="http://www.w3.org/1999/xlink" x="0px" y="0px"
	 viewBox="0 0 226.8 226.8" style="enable-background:new 0 0 226.8 226.8;" xml:space="preserve">
<style type="text/css">
	.st0{fill:#FF0000;}
	.st1{fill:#222220;}
	.st2{fill:#FFFFFF;}
	.st3{fill:#888888;}
	.st4{fill:none;stroke:#FF0000;stroke-width:3;stroke-miterlimit:10;}
	.st5{fill:none;stroke:#888888;stroke-width:18;stroke-linecap:round;stroke-linejoin:round;stroke-miterlimit:10;}
	.st6{fill:#FFFFFF;stroke:#222220;stroke-width:0.25;stroke-miterlimit:10;}
	.st7{fill:#CBCBCB;}
	.st8{fill:#9069AE;}
</style>
<g>
	<path class="st0" d="M39.1,59.1c1,0.6,2.4,0.2,3-0.8c0.8-1.4,1.7-2.8,2.6-4.2c0.3-0.5,0.4-1.1,0.3-1.6s-0.4-1.1-0.9-1.4
		c-0.4-0.2-0.8-0.4-1.2-0.4c-0.7,0-1.4,0.3-1.8,1c-1,1.4-1.9,2.9-2.7,4.4c-0.3,0.5-0.4,1.1-0.2,1.6C38.2,58.4,38.6,58.8,39.1,59.1z"
		/>
	<path class="st0" d="M33.6,71.4c1.1,0.4,2.4-0.2,2.8-1.2c0.6-1.5,1.2-3.1,1.9-4.6c0.5-1.1,0-2.4-1.1-2.9h0
		c-0.3-0.1-0.6-0.2-0.9-0.2c-0.3,0-0.5,0-0.8,0.1c-0.5,0.2-1,0.6-1.2,1.1c-0.7,1.6-1.4,3.2-2,4.8C31.9,69.7,32.5,71,33.6,71.4z"/>
	<path class="st0" d="M46.5,47.9c0.9,0.7,2.3,0.6,3-0.3c1-1.3,2.1-2.5,3.2-3.7c0.4-0.4,0.6-1,0.6-1.6s-0.3-1.1-0.7-1.5
		c-0.4-0.4-0.9-0.6-1.5-0.6c0,0-0.1,0-0.1,0c-0.6,0-1.1,0.3-1.5,0.7c-1.2,1.3-2.3,2.6-3.4,3.9c-0.4,0.4-0.5,1-0.5,1.6
		C45.8,47,46.1,47.5,46.5,47.9z"/>
	<path class="st0" d="M30.1,84.4c1.2,0.2,2.3-0.5,2.6-1.7c0.3-1.6,0.7-3.2,1.2-4.8c0.2-0.6,0.1-1.1-0.2-1.6c-0.3-0.5-0.8-0.9-1.3-1
		l0,0c-0.2-0.1-0.4-0.1-0.6-0.1c-0.4,0-0.7,0.1-1.1,0.3c-0.5,0.3-0.9,0.8-1,1.3c-0.5,1.7-0.9,3.4-1.2,5c-0.1,0.6,0,1.1,0.3,1.6
		C29.1,84,29.5,84.3,30.1,84.4z"/>
	<path class="st0" d="M29.3,111.3c0.1,0,0.2,0,0.2,0c0.6-0.1,1.1-0.3,1.4-0.8s0.5-1,0.5-1.6v0c-0.2-1.6-0.3-3.3-0.4-4.9
		c0-0.6-0.3-1.1-0.7-1.5c-0.4-0.4-0.9-0.6-1.4-0.6c0,0-0.1,0-0.1,0c-1.2,0.1-2.1,1.1-2,2.3c0.1,1.7,0.2,3.5,0.4,5.2
		C27.3,110.5,28.2,111.3,29.3,111.3z"/>
	<path class="st0" d="M31.8,124.5c0.2,0,0.4,0,0.6-0.1c0.6-0.2,1-0.5,1.3-1c0.3-0.5,0.4-1.1,0.2-1.6c-0.4-1.6-0.8-3.2-1.2-4.8
		c-0.1-0.6-0.5-1-0.9-1.4c-0.4-0.2-0.8-0.3-1.2-0.3c-0.2,0-0.3,0-0.5,0c-1.2,0.2-1.9,1.4-1.7,2.6c0.4,1.7,0.8,3.4,1.2,5
		C30,123.9,30.9,124.5,31.8,124.5L31.8,124.5z"/>
	<path class="st0" d="M37.4,137c1.1-0.5,1.6-1.8,1.1-2.9v0c-0.7-1.5-1.3-3-1.9-4.5c-0.2-0.5-0.6-1-1.1-1.2c-0.3-0.1-0.6-0.2-0.9-0.2
		c-0.3,0-0.5,0-0.8,0.1c-0.5,0.2-1,0.6-1.2,1.1c-0.2,0.5-0.2,1.1,0,1.7c0.6,1.6,1.3,3.2,2,4.8C35,137,36.3,137.5,37.4,137z"/>
	<path class="st0" d="M28.8,97.9l0.1,0c1.2,0,2.1-0.9,2.2-2.1c0.1-1.6,0.2-3.3,0.4-4.9c0.1-1.2-0.7-2.3-1.9-2.4h0
		c-0.1,0-0.2,0-0.2,0c-0.5,0-1,0.2-1.4,0.5c-0.4,0.4-0.7,0.9-0.8,1.5c-0.2,1.7-0.3,3.5-0.4,5.2C26.6,96.8,27.6,97.8,28.8,97.9z"/>
	<path class="st0" d="M191,66.1c-1.1,0.4-1.6,1.7-1.2,2.8c0.6,1.5,1.2,3.1,1.7,4.6c0.4,1.1,1.6,1.7,2.7,1.4c0.5-0.2,1-0.6,1.2-1.1
		s0.3-1.1,0.1-1.6c-0.5-1.6-1.2-3.3-1.8-4.9c-0.3-0.8-1.2-1.4-2-1.4C191.5,65.9,191.3,66,191,66.1z"/>
	<path class="st0" d="M186.3,61.4c0.5,1,1.9,1.5,2.9,0.9c0.5-0.3,0.9-0.7,1.1-1.3c0.2-0.6,0.1-1.1-0.2-1.6h0c-0.8-1.5-1.7-3-2.5-4.5
		c-0.4-0.7-1.1-1-1.9-1c-0.4,0-0.8,0.1-1.1,0.3c-1,0.6-1.3,1.9-0.7,3C184.8,58.6,185.6,60,186.3,61.4z"/>
	<path class="st0" d="M194,79.8c-0.3,0.5-0.4,1.1-0.3,1.6c0.4,1.6,0.7,3.2,0.9,4.8c0.2,1.2,1.3,2,2.5,1.8c1.2-0.2,2-1.3,1.8-2.5
		c-0.3-1.7-0.6-3.4-1-5.1c-0.2-1-1.1-1.7-2.1-1.7c-0.2,0-0.3,0-0.5,0.1C194.8,79,194.3,79.3,194,79.8z"/>
	<path class="st0" d="M179.3,50.4c0.7,0.9,2.1,1.1,3,0.4c1-0.7,1.1-2.1,0.4-3c-1-1.4-2.1-2.7-3.2-4.1c-0.4-0.5-1-0.8-1.7-0.8
		c-0.5,0-1,0.2-1.4,0.5c-0.9,0.8-1,2.1-0.3,3C177.3,47.7,178.4,49,179.3,50.4z"/>
	<path class="st0" d="M106.1,17.6c1.6-0.1,3.3-0.2,4.9-0.3c1.2,0,2.1-1,2.1-2.2c0-1.2-1-2.1-2.2-2.1c-1.7,0-3.5,0.1-5.2,0.3
		c-1.2,0.1-2.1,1.2-2,2.3C103.8,16.8,104.9,17.8,106.1,17.6z"/>
	<path class="st0" d="M93.1,19.8c1.6-0.4,3.2-0.8,4.8-1.1c1.2-0.2,1.9-1.4,1.7-2.5c-0.2-1-1.1-1.8-2.1-1.8c-0.1,0-0.3,0-0.4,0
		c-1.7,0.3-3.4,0.7-5.1,1.1c-0.6,0.1-1,0.5-1.3,1c-0.3,0.5-0.4,1.1-0.2,1.6C90.8,19.4,92,20.1,93.1,19.8z"/>
	<path class="st0" d="M119.2,17.5c1.6,0.1,3.3,0.3,4.9,0.5c1.2,0.2,2.3-0.7,2.4-1.9c0.1-0.6-0.1-1.1-0.4-1.6
		c-0.4-0.5-0.9-0.8-1.4-0.8c-1.7-0.2-3.4-0.4-5.2-0.5c-0.1,0-0.1,0-0.2,0c-1.1,0-2.1,0.9-2.2,2C117.1,16.4,118,17.4,119.2,17.5z"/>
	<path class="st0" d="M132.2,19.5c1.6,0.4,3.2,0.8,4.8,1.3c1.1,0.3,2.4-0.3,2.7-1.5c0.2-0.6,0.1-1.1-0.2-1.6c-0.3-0.5-0.7-0.9-1.3-1
		l0,0c-1.6-0.5-3.3-0.9-5-1.3c-0.2,0-0.3-0.1-0.5-0.1c-1,0-1.9,0.7-2.1,1.7c-0.1,0.6,0,1.1,0.3,1.6C131.1,19,131.6,19.4,132.2,19.5z
		"/>
	<path class="st0" d="M144.7,23.5c1.5,0.6,3,1.3,4.5,2c1.1,0.5,2.4,0,2.9-1c0.3-0.5,0.3-1.1,0.1-1.7s-0.6-1-1.1-1.2
		c-1.6-0.8-3.2-1.5-4.7-2.1c-0.3-0.1-0.5-0.2-0.8-0.2c-0.9,0-1.7,0.5-2,1.3c-0.2,0.5-0.2,1.1,0,1.7
		C143.7,22.9,144.2,23.3,144.7,23.5z"/>
	<path class="st0" d="M156.4,29.4c1.4,0.9,2.8,1.8,4.1,2.7c0.9,0.7,2.4,0.4,3-0.5c0.3-0.5,0.5-1,0.4-1.6c-0.1-0.6-0.4-1.1-0.9-1.4v0
		c-1.4-1-2.9-1.9-4.3-2.8c-0.3-0.2-0.7-0.3-1.1-0.3c-0.2,0-0.3,0-0.5,0.1c-0.6,0.1-1,0.5-1.3,1C155.1,27.5,155.4,28.8,156.4,29.4z"
		/>
	<path class="st0" d="M182.6,148.3c-0.4-0.3-0.8-0.4-1.3-0.4c-0.7,0-1.3,0.3-1.7,0.9c-1,1.3-2,2.6-3.1,3.9c-0.8,0.9-0.6,2.3,0.3,3
		c0.9,0.7,2.3,0.6,3-0.3c1.1-1.3,2.2-2.7,3.2-4.1C183.7,150.4,183.5,149.1,182.6,148.3z"/>
	<path class="st0" d="M172.4,158.1L172.4,158.1c-0.6,0-1.1,0.2-1.5,0.6c-1.2,1.1-2.4,2.3-3.6,3.3c-0.4,0.4-0.7,0.9-0.7,1.5
		c0,0.6,0.1,1.1,0.5,1.6c0.8,0.9,2.2,1,3,0.2c1.3-1.1,2.6-2.3,3.8-3.5c0.9-0.8,0.9-2.2,0-3.1C173.6,158.3,173,158.1,172.4,158.1z"/>
	<path class="st0" d="M162.4,166.7c-0.1,0-0.2,0-0.4,0c-0.4,0-0.9,0.1-1.2,0.4c-1.3,0.9-2.7,1.9-4.1,2.7c-1,0.6-1.3,2-0.7,3
		c0.6,1,2,1.3,3,0.7c1.5-0.9,2.9-1.9,4.3-2.9c1-0.7,1.2-2,0.5-3C163.5,167.1,163,166.8,162.4,166.7z"/>
	<path class="st0" d="M44.9,145.6c-0.9-1.4-1.8-2.8-2.6-4.2c-0.3-0.5-0.8-0.9-1.3-1c-0.2,0-0.4-0.1-0.5-0.1c-0.4,0-0.8,0.1-1.1,0.3
		c-1,0.6-1.4,1.9-0.8,3c0.9,1.5,1.8,3,2.8,4.4c0.6,1,2,1.2,3,0.6c0.5-0.3,0.8-0.8,0.9-1.4C45.3,146.6,45.2,146,44.9,145.6
		L44.9,145.6z"/>
	<path class="st0" d="M189.4,136.7c-0.3-0.2-0.7-0.2-1-0.2c-0.2,0-0.4,0-0.7,0.1c-0.6,0.2-1,0.6-1.3,1.1c-0.8,1.4-1.6,2.9-2.4,4.3
		c-0.3,0.5-0.4,1.1-0.2,1.6c0.1,0.6,0.5,1,1,1.3c1,0.6,2.4,0.2,3-0.7c0.9-1.5,1.7-3,2.5-4.5c0.3-0.5,0.3-1.1,0.1-1.6
		C190.3,137.5,189.9,137,189.4,136.7z"/>
	<path class="st0" d="M197.2,111L197.2,111c-0.1,0-0.2,0-0.3,0c-0.5,0-0.9,0.1-1.3,0.4c-0.5,0.3-0.8,0.8-0.9,1.4
		c-0.3,1.6-0.6,3.2-0.9,4.8c-0.3,1.2,0.5,2.3,1.6,2.6c1.1,0.2,2.3-0.5,2.6-1.6c0.4-1.7,0.7-3.4,1-5.1c0.1-0.6,0-1.1-0.4-1.6
		C198.3,111.4,197.8,111.1,197.2,111z"/>
	<path class="st0" d="M197.7,92.1c0,0-0.1,0-0.1,0c-0.6,0-1.1,0.3-1.5,0.7s-0.6,1-0.5,1.6c0.1,1.6,0.2,3.3,0.2,4.9l0,0.2l0,0.2
		c0,1.6,0,3.3-0.1,4.9c0,0.6,0.2,1.1,0.5,1.6c0.4,0.4,0.9,0.7,1.5,0.7l0.1,0c1.1,0,2.1-0.9,2.2-2c0.1-1.7,0.2-3.5,0.2-5.2l0-0.2
		l0-0.1c0,0,0-0.1,0-0.1v0c0-1.7-0.1-3.5-0.2-5.2C199.8,93,198.9,92.1,197.7,92.1z"/>
	<path class="st0" d="M194.4,124.2c-0.2-0.1-0.5-0.1-0.7-0.1c-0.9,0-1.8,0.6-2.1,1.5c-0.5,1.5-1.1,3.1-1.7,4.6
		c-0.4,1.1,0.1,2.4,1.2,2.8c1.1,0.4,2.4-0.1,2.8-1.2c0.6-1.6,1.2-3.2,1.8-4.9c0.2-0.5,0.1-1.1-0.1-1.6
		C195.3,124.7,194.9,124.4,194.4,124.2z"/>
	<path class="st0" d="M170.7,40.5c0.8,0.8,2.3,0.8,3.1-0.1c0.4-0.4,0.6-1,0.6-1.5c0-0.6-0.2-1.1-0.7-1.5l0,0
		c-1.2-1.2-2.5-2.4-3.8-3.5c-0.4-0.3-0.9-0.5-1.4-0.5c-0.1,0-0.1,0-0.2,0c-0.6,0-1.1,0.3-1.5,0.7c-0.4,0.4-0.6,1-0.5,1.6
		c0,0.6,0.3,1.1,0.7,1.5C168.2,38.2,169.5,39.4,170.7,40.5z"/>
	<path class="st0" d="M62.7,164.7c-1.3-1-2.6-2.1-3.8-3.1c-0.4-0.4-0.9-0.5-1.4-0.5c0,0-0.1,0-0.1,0c-0.6,0-1.1,0.3-1.5,0.7
		s-0.6,1-0.5,1.6c0,0.6,0.3,1.1,0.7,1.5c1.3,1.1,2.6,2.3,4,3.3c0.9,0.7,2.3,0.5,3-0.4c0.4-0.5,0.5-1,0.4-1.6
		C63.4,165.6,63.2,165.1,62.7,164.7z"/>
	<path class="st0" d="M74.5,174.9c0.3-0.5,0.3-1.1,0.2-1.6c-0.2-0.6-0.5-1-1-1.3c-1.4-0.8-2.9-1.6-4.2-2.5c-0.4-0.2-0.8-0.3-1.1-0.3
		c-0.7,0-1.4,0.4-1.8,1c-0.3,0.5-0.4,1.1-0.3,1.6c0.1,0.6,0.5,1,1,1.4c1.5,0.9,3,1.8,4.5,2.6C72.6,176.3,74,175.9,74.5,174.9z"/>
	<path class="st0" d="M49.8,152.1c-0.4-0.4-0.9-0.7-1.5-0.8c-0.1,0-0.1,0-0.2,0c-0.5,0-1,0.2-1.4,0.5c-0.4,0.4-0.7,0.9-0.8,1.5
		c-0.1,0.6,0.1,1.1,0.5,1.6c1.1,1.3,2.2,2.6,3.4,3.9c0.8,0.8,2.2,0.9,3.1,0.1c0.4-0.4,0.7-0.9,0.7-1.5c0-0.6-0.2-1.1-0.6-1.5
		C51.9,154.7,50.8,153.4,49.8,152.1z"/>
	<path class="st0" d="M157.8,206.4h-6.5l-7.2-26.6l1.5,0.2c0.1,0,0.1,0,0.2,0c0.3,0,0.6-0.1,0.8-0.2c1.6-0.7,3.2-1.4,4.7-2.1
		c0.5-0.3,0.9-0.7,1.1-1.2s0.2-1.1-0.1-1.6c-0.5-1.1-1.8-1.5-2.9-1c-1.5,0.7-3,1.4-4.5,2c-0.1,0.1-0.3,0.1-0.4,0.2l-1.2,0.8
		l-6.8-25.2v-12.6c0-1.2-1-2.2-2.2-2.2s-2.2,1-2.2,2.2v9.8H97.7v-38.3c0-0.6-0.2-1.1-0.6-1.5L66.9,78.9l5.5-5.5l0.7,0.6
		c3.5,3.2,8.7,8,14,12.7c12.6,11.3,16.5,14.6,17.9,15.3l0.1,0c3.2,1.9,6.8,2.9,10.3,2.9c5.9,0,11.7-2.7,15.8-7.5l0.1-0.1
		c2.8-2.3,6.6-5.5,12-10.2c5.8-5,11.4-9.9,14.3-12.4l0.7-0.6l5.5,5.5L133,110.6c-0.4,0.4-0.6,1-0.6,1.5v11.8c0,1.2,1,2.2,2.2,2.2
		s2.2-1,2.2-2.2V113l30.9-30.9l0.5,0h0c1.1,0,2.2-0.4,2.9-1.2l8.4-8.4c0.8-0.8,1.2-1.8,1.2-2.9c0-1.1-0.4-2.2-1.2-2.9v0l-6.5-6.5
		c-0.8-0.8-1.8-1.2-2.9-1.2c-1.1,0-2.2,0.4-2.9,1.2l-3.3,3.3l-1-1c-0.8-0.8-1.8-1.2-2.9-1.2c-1.1,0-2.2,0.4-2.9,1.2l-2.3,2.3
		c-1.6,1.6-1.6,4.1-0.1,5.7l0.7,0.8l-0.8,0.7c-3,2.6-6,5.3-8.9,7.8l-1.2,1l-0.4-1.5c-0.8-2.8-3.3-5-6.2-5.4l-0.8-0.1V60.3
		c0-6.2-5-11.2-11.2-11.2h-4.4l-0.3-0.4c-1.3-1.5-3.1-2.3-5.1-2.3h-15.4c-3.7,0-6.7,3-6.7,6.7v20.5l-0.9,0.1
		c-2.9,0.4-5.3,2.4-6.2,5.2l-0.5,1.5l-1.1-1c-3.1-2.8-6.3-5.7-9.1-8.2l-0.7-0.6l0.6-0.7c1.3-1.6,1.2-4-0.3-5.5L73.5,62
		c-0.8-0.8-1.8-1.2-2.9-1.2c-1.1,0-2.2,0.4-2.9,1.2l-1,1l-3.3-3.3c-0.8-0.8-1.8-1.2-2.9-1.2c-1.1,0-2.2,0.4-2.9,1.2L51,66.2
		c-0.8,0.8-1.2,1.8-1.2,2.9c0,1.1,0.4,2.2,1.2,2.9l8.4,8.4c0.9,0.9,2.2,1.3,3.5,1.2l0.5-0.1l29.9,29.9l0,40.8l-5.9,26.3l-1.2-0.9
		c-0.2-0.1-0.4-0.2-0.5-0.3c-1.5-0.5-3.1-1.2-4.6-1.8c-1.1-0.5-2.4,0-2.8,1.1c-0.2,0.5-0.2,1.1,0,1.7c0.2,0.5,0.6,1,1.2,1.2
		c1.6,0.7,3.2,1.3,4.8,1.9c0.4,0.1,0.8,0.2,1.1,0.1l1.5-0.3l-5.7,25.2h-6.6c-2.4,0-4.3,1.9-4.3,4.3v5.3c0,2.4,1.9,4.3,4.3,4.3h20
		c2.4,0,4.3-1.9,4.3-4.3l0-6.6l1.4-6.2c0.1-0.6,0-1.1-0.3-1.6c-0.3-0.5-0.8-0.8-1.4-1c-0.6-0.1-1.1,0-1.6,0.3
		c-0.5,0.3-0.8,0.8-1,1.4l-0.9,4.2h-9.6l12-53.2h35l14.3,53.2h-9.7l-12-44.7c-0.3-0.9-1.1-1.6-2.1-1.6h-15.8c-1,0-1.9,0.7-2.1,1.7
		l-5.8,25.7c-0.1,0.6,0,1.1,0.3,1.6c0.3,0.5,0.8,0.8,1.4,1c0.6,0.1,1.1,0,1.6-0.3c0.5-0.3,0.8-0.8,1-1.4l0.7-3l1.1,0.5
		c0.2,0.1,0.5,0.2,0.7,0.2c1.7,0.1,3.5,0.2,5.2,0.3h0c1.2,0,2.2-0.9,2.2-2.1c0-1.2-0.9-2.2-2.1-2.2c-1.6,0-3.3-0.1-4.9-0.3l-1.3,0
		l3.9-17.3h12.4l4.5,16.8l-1.2,0.1c-0.1,0-0.1,0-0.2,0c-1.6,0.2-3.3,0.4-4.9,0.5c-0.6,0-1.1,0.3-1.5,0.7s-0.6,1-0.5,1.6
		c0.1,1.2,1.1,2.1,2.3,2c1.7-0.1,3.4-0.3,5.2-0.5c0.2,0,0.5-0.1,0.7-0.2l1.1-0.6l6.7,24.8v6.3c0,2.4,1.9,4.3,4.3,4.3h20
		c2.4,0,4.3-1.9,4.3-4.3v-5.3C162.1,208.3,160.2,206.4,157.8,206.4z M159.9,65.6l2.4,2.4c0.8,0.8,2.2,0.8,3.1,0l4.7-4.7l6.2,6.2
		l-8.2,8.2l-10.2-10.2L159.9,65.6z M136.9,83.3c0-0.3,0-0.6,0-1v-4.8l1.6,1.1c0.9,0.6,1.5,1.7,1.5,2.8c0,1.1-0.6,2.2-1.5,2.8
		l-1.6,1.1L136.9,83.3z M122.7,53.5h3.1c3.8,0,6.8,3.1,6.8,6.8v3l-1.7-1.4c-2.1-1.8-4.6-3.1-7.6-4l-0.7-0.2V53.5z M98.3,53.1
		c0-0.6,0.2-1.2,0.7-1.6c0.4-0.4,1-0.7,1.6-0.7h15.4c1.3,0,2.3,1.1,2.3,2.3v3.8l-1.1-0.1c-0.6,0-1.2-0.1-1.9-0.1
		c-6.3,0-11.7,1.8-15.5,5.1l-1.7,1.4V53.1z M98.3,75.5c0-10.6,8.9-14.4,17.2-14.4s17.2,3.8,17.2,14.4v6.8c0,9.9-8,18.5-17.2,18.5
		c-9.1,0-17.2-8.6-17.2-18.5V75.5z M92.5,78.5l1.5-0.9v4.7c0,0.4,0,0.7,0,1.1l0.1,1.8l-1.6-0.9c-1-0.6-1.7-1.7-1.7-2.9
		C90.8,80.2,91.4,79.1,92.5,78.5z M62.4,77.3l-8.2-8.2l6.2-6.2l4.7,4.7c0.8,0.8,2.2,0.8,3.1,0l2.4-2.4l2,2L62.4,77.3z M94.6,210.7
		v5.2H74.6v-5.2H94.6z M157.8,215.9h-19.9v-5.2h19.9V215.9z"/>
	<path class="st0" d="M117.9,83.7l-0.7-0.2v-2.4c0-1.2-1-2.2-2.2-2.2s-2.2,1-2.2,2.2v4.7c0,1.2,1,2.2,2.2,2.2h2.2
		c1.2,0,2.2-1,2.2-2.2C119.4,84.8,118.8,84,117.9,83.7z"/>
	<path class="st0" d="M107.7,81.2v-2.9c0-1.2-1-2.2-2.2-2.2s-2.2,1-2.2,2.2v2.9c0,1.2,1,2.2,2.2,2.2S107.7,82.4,107.7,81.2z"/>
	<path class="st0" d="M125.3,83.3c1.2,0,2.2-1,2.2-2.2v-2.9c0-1.2-1-2.2-2.2-2.2s-2.2,1-2.2,2.2v2.9
		C123.1,82.4,124.1,83.3,125.3,83.3z"/>
	<path class="st0" d="M120.8,90.8C120.8,90.8,120.8,90.8,120.8,90.8c-0.6,0-1.1,0.2-1.5,0.6c-1,1-2.4,1.6-3.9,1.6s-2.9-0.6-3.9-1.6
		c-0.4-0.4-1-0.6-1.5-0.6s-1.1,0.2-1.5,0.6c-0.8,0.8-0.8,2.2,0,3.1c1.9,1.9,4.3,2.9,7,2.9s5.1-1,7-2.9c0.8-0.8,0.8-2.2,0-3.1
		C122,91.1,121.4,90.8,120.8,90.8z"/>
	<path class="st0" d="M126.2,112.4c-1.4-1.4-3.4-2.2-5.4-2.2c-1.8,0-3.5,0.6-4.9,1.8l-0.6,0.5l-0.6-0.5c-1.4-1.1-3.1-1.8-4.9-1.8
		c-2,0-4,0.8-5.4,2.2c-1.4,1.4-2.2,3.4-2.2,5.4s0.8,4,2.2,5.4l8.6,8.5c1.2,1.2,3.4,1.2,4.6,0l8.7-8.5c1.4-1.4,2.2-3.4,2.2-5.4
		C128.4,115.7,127.6,113.8,126.2,112.4z M123.1,120.1L123.1,120.1l-7.9,7.8l-7.8-7.8c-0.6-0.6-1-1.4-1-2.3c0-0.9,0.3-1.7,1-2.3
		c1.3-1.3,3.4-1.3,4.7,0l1.6,1.6c0.8,0.8,2.2,0.8,3,0l1.6-1.6c1.3-1.3,3.4-1.3,4.7,0c0.6,0.6,1,1.4,1,2.3
		C124.1,118.6,123.8,119.5,123.1,120.1z"/>
	<path class="st0" d="M153.8,139l2.3-2.3l0.6,0.2c2.2,0.7,4.5,1.1,6.9,1.1c6.2,0,11.9-2.4,16.3-6.8c6.5-6.5,8.5-16.3,5.1-24.8
		c-0.1-0.4-0.4-0.7-0.6-1c-0.3-0.3-0.6-0.5-1-0.6c-2.7-1.1-5.6-1.6-8.5-1.6c-6.2,0-11.9,2.4-16.3,6.8c-6.1,6.1-8.3,15-5.7,23.2
		l0.2,0.6l-2.3,2.3c-0.8,0.8-0.8,2.2,0,3.1C151.5,139.8,153,139.8,153.8,139z M161.6,113c3.5-3.5,8.2-5.5,13.2-5.5
		c2,0,4,0.3,5.8,0.9l0.5,0.2l0.2,0.5c2.2,6.7,0.5,14.1-4.6,19.1c-3.5,3.5-8.2,5.5-13.2,5.5c-0.6,0-1.3,0-2-0.1l-2.1-0.2l14.5-14.5
		c0.8-0.8,0.8-2.2,0-3.1c-0.4-0.4-1-0.6-1.5-0.6c0,0,0,0,0,0c-0.6,0-1.1,0.2-1.5,0.6l-14.5,14.5l-0.2-2.1
		C155.6,122.5,157.6,117,161.6,113z"/>
	<path class="st0" d="M55.5,31.6c0.4,0.2,0.9,0.4,1.3,0.6l1.4,0.7L56.7,34c-0.3,0.3-0.6,0.5-0.9,0.8c-0.9,0.8-1,2.2-0.2,3
		c0.8,0.9,2.2,0.9,3,0.2c0.9-0.8,1.9-1.6,3-2.5l0.6-0.5l0.6,0.4c4,2.9,6.6,6.3,9.3,12.7c0.5,1.3,1.8,2.1,3.2,2.1
		c1.4,0,2.6-0.8,3.2-2.1c4-9.1,7.6-12.7,16.7-16.7c1.3-0.5,2.1-1.8,2.1-3.2c0-1.4-0.8-2.6-2.1-3.2h0c-3.5-1.5-6-2.9-8.1-4.5
		l-0.4-0.3l0-0.5c0-0.2-0.1-0.4-0.1-0.6c-0.3-0.8-1.1-1.4-2-1.4l-0.5,0l-0.3-0.3c-1.9-2.2-3.6-5-5.4-9.1c-0.5-1.3-1.8-2.1-3.2-2.1
		c-1.4,0-2.6,0.8-3.2,2.1c-4,9.1-7.6,12.7-16.7,16.7c-1.3,0.5-2.1,1.8-2.1,3.2C53.4,29.8,54.2,31,55.5,31.6z M60.8,27.5
		c6.6-3.4,10.3-7.1,13.6-13.6l0.9-1.7l0.9,1.7c3.4,6.6,7.1,10.3,13.6,13.6l1.7,0.9l-1.7,0.9c-6.6,3.4-10.3,7.1-13.6,13.6l-0.9,1.7
		l-0.9-1.7c-3.4-6.6-7.1-10.3-13.6-13.6l-1.7-0.9L60.8,27.5z"/>
	<path class="st0" d="M50.8,123.9c4,1.9,5.9,3.8,7.7,7.7c0.6,1.2,1.8,2,3.1,2s2.5-0.8,3.1-2c1.9-4,3.8-5.9,7.7-7.7
		c1.2-0.6,2-1.8,2-3.1c0-1.3-0.8-2.5-2-3.1c-4-1.9-5.9-3.8-7.7-7.7c-0.6-1.2-1.8-2-3.1-2s-2.5,0.8-3.1,2c-1.9,4-3.8,5.9-7.7,7.7
		c-1.2,0.6-2,1.8-2,3.1C48.8,122.2,49.6,123.4,50.8,123.9z M55.6,120c2.2-1.4,3.7-3,5.1-5.1l0.8-1.3l0.8,1.3c1.4,2.2,3,3.7,5.1,5.1
		l1.3,0.8l-1.3,0.8c-2.2,1.4-3.7,3-5.1,5.1l-0.8,1.3l-0.8-1.3c-1.4-2.2-3-3.7-5.1-5.1l-1.3-0.8L55.6,120z"/>
</g>
</svg>
