<?xml version="1.0" encoding="utf-8"?>
<!-- Generator: Adobe Illustrator 23.0.3, SVG Export Plug-In . SVG Version: 6.00 Build 0)  -->
<svg version="1.1" id="Слой_1" xmlns="http://www.w3.org/2000/svg" xmlns:xlink="http://www.w3.org/1999/xlink" x="0px" y="0px"
	 viewBox="0 0 226.8 226.8" style="enable-background:new 0 0 226.8 226.8;" xml:space="preserve">
<style type="text/css">
	.st0{fill:#FF0000;}
	.st1{fill:#222220;}
	.st2{fill:#FFFFFF;}
	.st3{fill:#888888;}
	.st4{fill:none;stroke:#FF0000;stroke-width:3;stroke-miterlimit:10;}
	.st5{fill:none;stroke:#888888;stroke-width:18;stroke-linecap:round;stroke-linejoin:round;stroke-miterlimit:10;}
	.st6{fill:#FFFFFF;stroke:#222220;stroke-width:0.25;stroke-miterlimit:10;}
	.st7{fill:#CBCBCB;}
	.st8{fill:#9069AE;}
</style>
<g>
	<rect x="110.1" y="131.3" class="st0" width="6.5" height="6.5"/>
	<path class="st0" d="M194.9,95.4h-38.2l1.8-9.8h2.2c1.4,0,2.6-0.9,3.1-2.2l8.2-22.8l-6.1-2.2l-7.4,20.7h-28.7v6.5h22.2l-1.8,9.8
		H76.7l-1.8-9.8h22.2v-6.5H68.4L61,58.5l-6.1,2.2L63,83.5c0.5,1.3,1.7,2.2,3.1,2.2h2.2l1.8,9.8H54.7c-7.2,0-13,5.8-13,13v22.8
		c0,1.8,1.5,3.3,3.3,3.3h19.6v-6.5H48.1c0-3.6,2.9-6.5,6.5-6.5h18.8l-5.1,22.8H31.8c-1.8,0-3.3,1.5-3.3,3.3v19.6
		c0,1.8,1.5,3.3,3.3,3.3h35.9v39.1h6.5v-27.1l29.4,16v11.1h6.5v-9.8h6.5v9.8h6.5v-11.1l29.4-16v27.1h6.5v-39.1h13
		c7.2,0,13-5.8,13-13v-22.8c0-1.8-1.5-3.3-3.3-3.3h-19.6v6.5h16.3c0,3.6-2.9,6.5-6.5,6.5h-13.7l-5.1-22.8h41.6
		c1.8,0,3.3-1.5,3.3-3.3V98.7C198.2,96.9,196.7,95.4,194.9,95.4z M41.6,164h-6.5v-13h6.5c3.6,0,6.5,2.9,6.5,6.5S45.2,164,41.6,164z
		 M152.5,175.1l-33.5,18.2h-11.4l-33.5-18.2v-4.6h78.3V175.1z M172.1,150.9c2.3,0,4.5-0.6,6.5-1.8v8.3c0,3.6-2.9,6.5-6.5,6.5h-3.3
		v-6.5h-6.5v6.5h-9.8v-6.5H146v6.5h-9.8v-6.5h-6.5v6.5h-9.8v-6.5h-6.5v6.5h-9.8v-6.5h-6.5v6.5h-9.8v-6.5h-6.5v6.5H71v-6.5h-6.5v6.5
		H52.9c2.4-4,2.4-9,0-13H172.1z M75,144.4l5.1-22.8h66.6l5.1,22.8H75z M173.9,115H54.7c-2.3,0-4.5,0.6-6.5,1.8v-8.3
		c0-3.6,2.9-6.5,6.5-6.5h3.3v6.5h6.5V102h9.8v6.5h6.5V102h9.8v6.5h6.5V102h9.8v6.5h6.5V102h9.8v6.5h6.5V102h9.8v6.5h6.5V102h9.8v6.5
		h6.5V102h11.6C171.5,106,171.5,111,173.9,115z M191.7,115h-6.5c-3.6,0-6.5-2.9-6.5-6.5c0-3.6,2.9-6.5,6.5-6.5h6.5V115z"/>
	<path class="st0" d="M39.9,89.2l6.5-0.6l-3-34.2c-0.8-9,5.9-16.9,14.8-17.7c0.5,0,0.9-0.1,1.4-0.1h107.4c9,0,16.3,7.3,16.3,16.3
		c0,0.5,0,0.9-0.1,1.4l-3,34.2l6.5,0.6l3-34.2c1.1-12.6-8.2-23.6-20.8-24.7c-0.7-0.1-1.3-0.1-2-0.1H59.7c-6.4,0-12.5,2.7-16.8,7.4
		c-4.3,4.7-6.5,11-5.9,17.4L39.9,89.2z"/>
	<rect x="64.5" y="17.1" class="st0" width="84.8" height="6.5"/>
	<rect x="155.8" y="17.1" class="st0" width="6.5" height="6.5"/>
</g>
</svg>
