<?xml version="1.0" encoding="utf-8"?>
<!-- Generator: Adobe Illustrator 23.0.3, SVG Export Plug-In . SVG Version: 6.00 Build 0)  -->
<svg version="1.1" id="Слой_1" xmlns="http://www.w3.org/2000/svg" xmlns:xlink="http://www.w3.org/1999/xlink" x="0px" y="0px"
	 viewBox="0 0 226.8 226.8" style="enable-background:new 0 0 226.8 226.8;" xml:space="preserve">
<style type="text/css">
	.st0{fill:#FF0000;}
	.st1{fill:#222220;}
	.st2{fill:#FFFFFF;}
	.st3{fill:#888888;}
	.st4{fill:none;stroke:#FF0000;stroke-width:3;stroke-miterlimit:10;}
	.st5{fill:none;stroke:#888888;stroke-width:18;stroke-linecap:round;stroke-linejoin:round;stroke-miterlimit:10;}
	.st6{fill:#FFFFFF;stroke:#222220;stroke-width:0.25;stroke-miterlimit:10;}
	.st7{fill:#CBCBCB;}
	.st8{fill:#9069AE;}
</style>
<g>
	<g>
		<g>
			<path class="st0" d="M56.7,212.9c15,0,35.7-3.4,48.7-12.6c0.5,8.4,6.5,15,13.8,15c3.5-0.1,6.9-1.6,9.3-4.2
				c3.2,2.7,7.3,4.2,11.5,4.2c8.7,0,18.5-5.9,18.5-13.9c0-0.1,0-0.2,0-0.3c1.7-0.1,3.3-0.2,4.9-0.3c4.2,7.6,10.7,14.3,17.7,14.3
				c0.9,0,1.7-0.1,2.6-0.3c1.7-0.4,3.4-1.1,4.9-2.1c1.5,1,3.1,1.7,4.9,2.1c11,2.6,21.4-12.4,24.3-23.8c1.8-6.4,1-13.2-2.3-19
				c-0.8-1.4-1.8-2.7-3-3.8c4-7.8,6.2-16.4,6.2-25.2v-4.3c0-1.3-1-2.3-2.3-2.3h-80.3c0-0.3,0.1-0.5,0.1-0.8c0-1.8-0.7-3.6-2-4.9
				c-1.2-1.2-2.8-1.9-4.5-2c-0.1-1.7-0.8-3.3-2-4.5c-2.7-2.7-7.1-2.7-9.8,0c-2.1,2.1-2.6,5.2-1.4,7.8l-4.3,4.3h-4.2
				c0.6-1.2,1.2-2.5,1.8-3.7c5.6-12.7,8-26.5,7-40.3l-0.3-4.7c0-0.7-0.4-1.3-1-1.7c-0.6-0.3-1.3-0.4-2-0.3
				c-14.4,4.1-27.5,12-37.9,22.8l0,0c-4.9,5-9.1,10.7-12.6,16.8l-7.1,12.4c-2,0-4,0.2-5.9,0.5l1.5-27.9c0.4-7-5-12.9-11.9-13.3
				c-1-0.1-1.9,0-2.9,0.2l-5.6,1l-1.7-7l8-6l-2.8-3.7L28,86l-1.5-5.9L22,81.3l1.6,6.4H15v4.6h9.8l1.6,6.4l-3.1,0.5
				c-6.9,1.2-11.5,7.8-10.2,14.6c0.2,1.1,0.5,2.2,1,3.2l14.1,29.8c-13.4,9.4-22.4,24.3-22.4,37.4C5.7,203,23.3,212.9,56.7,212.9z
				 M119.1,210.5c-5.1,0-9.3-5.2-9.3-11.6c0-6.9,4.7-13.9,9.3-13.9s9.3,7,9.3,13.9C128.4,205.3,124.2,210.5,119.1,210.5z M140,210.5
				c-3.3,0-6.5-1.2-8.9-3.4c1.3-2.5,1.9-5.4,1.9-8.2c0-1.6-0.2-3.1-0.5-4.7c2.2-1.5,4.8-2.3,7.5-2.3c6.9,0,13.9,4.7,13.9,9.3
				S146.8,210.5,140,210.5z M157.2,196.4c-2.9-5.4-10.4-9-17.2-9c-3.2,0-6.3,0.8-9,2.4c-2.4-5.2-6.7-9.3-11.8-9.3
				c-0.8,0-1.6,0.1-2.3,0.3c0-2.6-0.5-5.2-1.4-7.7c11.6,9.2,25.9,14.1,40.7,14.1c0.9,0,1.8,0,2.5,0c0.1,1.2,0.4,2.5,0.7,3.7
				c0.5,1.8,1.1,3.6,1.9,5.4C159.9,196.3,158.5,196.4,157.2,196.4z M100.5,148.1c2.5-0.2,5.1,0.6,7,2.3c1.6,1.9,2.5,4.4,2.3,6.9
				c-0.4,7.5-3.5,14.5-8.7,19.9c-6.7,6.6-16.9,7.4-22.6,1.7c-2.5-2.5-3.9-6-3.8-9.6c0.1-4.8,2.1-9.4,5.6-12.7
				C85.8,151.5,93,148.5,100.5,148.1z M205.9,164.1c2.7-3.3,5.1-7,7-10.8c-0.9,4.1-2.3,8.2-4.2,12
				C207.8,164.8,206.9,164.4,205.9,164.1z M200.4,163.4c-3.4,0.2-6.7,1.4-9.5,3.3c-0.1-4.2,1.1-8.2,3.3-11.7l-3.8-2.6
				c-2.8,4.3-4.3,9.3-4.2,14.4c-4.1-3-9.2-4-14.1-2.9c-4.4,1.1-8.2,4-10.5,8c-1.9,3.3-3,6.9-3.1,10.7c-0.7,0-1.5,0-2.4,0
				c-16.1,0.1-31.5-6.2-42.8-17.6c0.7-2.5,1.1-5,1.2-7.6c0-1.2-0.1-2.5-0.4-3.7l12.1-12c2.4,1.1,5.2,0.8,7.3-0.8h79
				C210.4,149.3,206.3,157,200.4,163.4z M213.3,189.6c-2.8,10.7-11.7,22.2-18.8,20.5c-1.7-0.4-3.2-1.2-4.5-2.3
				c-0.8-0.7-2.1-0.7-2.9,0c-1.3,1.1-2.9,1.8-4.5,2.3c-7,1.7-16-9.8-18.8-20.5c-1.5-5.2-0.8-10.7,1.8-15.5c1.6-2.9,4.4-5,7.6-5.8
				c0.9-0.2,1.8-0.3,2.7-0.3c4.2,0.2,8.2,2.1,11,5.3c0.9,0.9,2.3,1,3.3,0.1c0,0,0.1-0.1,0.1-0.1c3.3-4,8.5-6,13.6-5
				c3.2,0.8,6,2.9,7.6,5.8C214.1,178.9,214.8,184.4,213.3,189.6z M121,133.9c0.9-0.9,0.9-2.4,0-3.3c0,0,0,0,0,0
				c-0.9-0.9-0.9-2.3,0-3.2c0,0,0,0,0,0c0.9-0.9,2.4-0.9,3.3,0c0.9,0.9,0.9,2.3,0,3.2c0,0,0,0,0,0c-0.9,0.9-0.9,2.4,0,3.3
				c0.9,0.9,2.4,0.9,3.3,0c0.9-0.9,2.4-0.9,3.3,0c0.9,0.9,0.9,2.3,0,3.2c0,0,0,0,0,0c-0.9,0.9-2.4,0.9-3.3,0c-0.9-0.9-2.4-0.9-3.3,0
				L112.3,149c-0.8-1.3-1.9-2.4-3.2-3.2L121,133.9z M104.3,143.9c-2-0.4-4-0.5-6-0.3c0-0.3,0-0.5,0-0.8v-2h9.1L104.3,143.9z
				 M81.3,108.9c0.5-0.4,0.9-0.9,1.4-1.3c0.7-0.7,1.5-1.3,2.2-1.9c0.5-0.4,1-0.8,1.5-1.2c0.8-0.6,1.5-1.2,2.3-1.8
				c0.5-0.4,1-0.8,1.5-1.1c0.8-0.6,1.6-1.1,2.5-1.6c0.5-0.3,1-0.7,1.6-1c0.9-0.5,1.7-1,2.6-1.5c0.5-0.3,1-0.6,1.5-0.9
				c1-0.5,1.9-1,2.9-1.5c0.5-0.2,0.9-0.5,1.4-0.7c1.1-0.5,2.3-1,3.4-1.5c0.3-0.1,0.7-0.3,1-0.4c1.5-0.6,3-1.1,4.6-1.6l0.1,1.8
				c0.1,1.5,0.2,3,0.2,4.5c0,0.1,0,0.1,0,0.2c0,1.1,0,2.1-0.1,3.2c0,0.5,0,1.1,0,1.6c0,0.2,0,0.4,0,0.5l-9.2,11.4l3.6,2.9l4.6-5.8
				c0,0.1,0,0.3-0.1,0.4c-0.1,0.9-0.3,1.7-0.5,2.6c-0.1,0.7-0.3,1.4-0.4,2.1c-0.2,0.8-0.4,1.7-0.6,2.5c-0.2,0.7-0.4,1.4-0.6,2.1
				c-0.2,0.8-0.5,1.6-0.8,2.4c-0.2,0.7-0.5,1.4-0.7,2.1c-0.3,0.8-0.6,1.6-0.9,2.4c-0.2,0.5-0.4,0.9-0.6,1.4
				c-11.4-1.2-21.3-8.3-26.1-18.8C80.4,109.9,80.9,109.4,81.3,108.9z M66.9,127.3c2.7-4.8,6-9.2,9.6-13.4
				c5.5,10.6,15.7,17.8,27.5,19.6c-0.4,0.9-0.9,1.8-1.4,2.7H96c-1.3,0-2.3,1-2.3,2.3v4.3c0,0.5,0,1,0.1,1.5c-1.7,0.4-3.3,1-4.9,1.6
				c-8.6-4.7-18-7.6-27.8-8.5L66.9,127.3z M22.6,124.3l15.8-2l-0.6-4.6l-17.3,2.2l-2.3-4.8c-1.9-4-0.2-8.8,3.8-10.7
				c0.6-0.3,1.3-0.5,2-0.6l13.2-2.3c3.8-0.7,7.6,1.5,8.9,5.2l-13,1.9l0.7,4.6l12.8-1.8l-0.8,16l-12.7,2.1l0.8,4.6l11.7-1.9l-0.4,6.9
				c-4.6,1.2-9,3.1-13.1,5.5L22.6,124.3z M56.7,142c9.4,0.2,18.5,2.4,26.9,6.6c-2.4,1.3-4.6,3-6.5,4.8c-4.3,4.2-6.8,9.9-7,16
				c-0.1,4.8,1.8,9.5,5.2,12.9c3.5,3.4,8.1,5.2,13,5.1c6.1-0.1,11.9-2.5,16.1-6.8c2.3-2.3,4.3-5,5.8-7.9c1.2,2.6,1.9,5.4,1.9,8.2
				c0,0.9-0.1,1.7-0.2,2.5c-3,2.8-5.1,6.4-6,10.4c-9.3,8.7-29,14.5-49.3,14.5c-21.1,0-46.3-4.2-46.3-24
				C10.4,165.2,31.7,142,56.7,142z"/>
		</g>
		<g>
			<rect x="179.3" y="150.1" class="st0" width="4.6" height="6.9"/>
		</g>
		<g>
			<rect x="165.4" y="150.1" class="st0" width="4.6" height="6.9"/>
		</g>
		<g>
			<rect x="151.5" y="150.1" class="st0" width="4.6" height="6.9"/>
		</g>
		<g>
			<rect x="137.7" y="150.1" class="st0" width="4.6" height="6.9"/>
		</g>
		<g>
			<rect x="123.8" y="150.1" class="st0" width="4.6" height="6.9"/>
		</g>
		<g>
			<path class="st0" d="M59,153.6V149c-19.1,0-34.7,11.9-34.7,26.6h4.6C28.9,163.5,42.4,153.6,59,153.6z"/>
		</g>
		<g>
			<rect x="89.1" y="106.2" class="st0" width="4.6" height="4.6"/>
		</g>
	</g>
	<g>
		<path class="st0" d="M207.4,107.3h-43.6c-7.5,0-13.6-6.1-13.6-13.6V25.6c0-7.5,6.1-13.6,13.6-13.6h43.6c7.5,0,13.6,6.1,13.6,13.6
			v68.1C221,101.2,214.9,107.3,207.4,107.3z M163.8,16.7c-4.9,0-8.9,4-8.9,8.9v68.1c0,4.9,4,8.9,8.9,8.9h43.6c4.9,0,8.9-4,8.9-8.9
			V25.6c0-4.9-4-8.9-8.9-8.9H163.8z"/>
	</g>
	<g>
		<path class="st0" d="M129.6,70.6H80.8c-6.1,0-11-4.9-11-11V23.1c0-6.1,4.9-11,11-11h48.8c6.1,0,11,4.9,11,11v36.6
			C140.6,65.7,135.7,70.6,129.6,70.6z M80.8,16.7c-3.5,0-6.3,2.8-6.3,6.3v36.6c0,3.5,2.8,6.3,6.3,6.3h48.8c3.5,0,6.3-2.8,6.3-6.3
			V23.1c0-3.5-2.8-6.3-6.3-6.3H80.8z"/>
	</g>
	<g>
		<path class="st0" d="M94.6,43.7c-5.4,0-9.8-4.4-9.8-9.8s4.4-9.8,9.8-9.8s9.8,4.4,9.8,9.8S100,43.7,94.6,43.7z M94.6,28.8
			c-2.8,0-5.1,2.3-5.1,5.1c0,2.8,2.3,5.1,5.1,5.1c2.8,0,5.1-2.3,5.1-5.1C99.7,31.1,97.4,28.8,94.6,28.8z"/>
	</g>
	<g>
		<path class="st0" d="M29,51.1c-5.4,0-9.8-4.4-9.8-9.8s4.4-9.8,9.8-9.8s9.8,4.4,9.8,9.8S34.4,51.1,29,51.1z M29,36.3
			c-2.8,0-5.1,2.3-5.1,5.1c0,2.8,2.3,5.1,5.1,5.1c2.8,0,5.1-2.3,5.1-5.1C34.1,38.5,31.8,36.3,29,36.3z"/>
	</g>
	<g>
		<path class="st0" d="M175.9,91.7c-5.4,0-9.8-4.4-9.8-9.8s4.4-9.8,9.8-9.8s9.8,4.4,9.8,9.8S181.3,91.7,175.9,91.7z M175.9,76.8
			c-2.8,0-5.1,2.3-5.1,5.1c0,2.8,2.3,5.1,5.1,5.1c2.8,0,5.1-2.3,5.1-5.1C181,79.1,178.7,76.8,175.9,76.8z"/>
	</g>
	<g>
		<path class="st0" d="M32.6,61.5c-13.8,0-25-11.2-25-25c0-13.8,11.2-25,25-25c13.8,0,25,11.2,25,25C57.5,50.3,46.4,61.5,32.6,61.5z
			 M32.6,16.3c-11.2,0-20.3,9.1-20.3,20.3c0,11.2,9.1,20.3,20.3,20.3c11.2,0,20.3-9.1,20.3-20.3C52.9,25.4,43.8,16.3,32.6,16.3z"/>
	</g>
</g>
</svg>
