<?xml version="1.0" encoding="utf-8"?>
<!-- Generator: Adobe Illustrator 23.0.3, SVG Export Plug-In . SVG Version: 6.00 Build 0)  -->
<svg version="1.1" id="Слой_1" xmlns="http://www.w3.org/2000/svg" xmlns:xlink="http://www.w3.org/1999/xlink" x="0px" y="0px"
	 viewBox="0 0 226.8 226.8" style="enable-background:new 0 0 226.8 226.8;" xml:space="preserve">
<style type="text/css">
	.st0{fill:#FF0000;}
	.st1{fill:#222220;}
	.st2{fill:#FFFFFF;}
	.st3{fill:#888888;}
	.st4{fill:none;stroke:#FF0000;stroke-width:3;stroke-miterlimit:10;}
	.st5{fill:none;stroke:#888888;stroke-width:18;stroke-linecap:round;stroke-linejoin:round;stroke-miterlimit:10;}
	.st6{fill:#FFFFFF;stroke:#222220;stroke-width:0.25;stroke-miterlimit:10;}
	.st7{fill:#CBCBCB;}
	.st8{fill:#9069AE;}
</style>
<g>
	<g>
		<path class="st0" d="M71,87.2H20.6l-6.1,0.1c-3.1,0.4-5.4,3-5.4,6.2v3.4c0,3.4,2.8,6.2,6.2,6.2h9.8v7.4
			c-12,10.3-19.5,25.5-19.5,42.5v8.6c0,3.9,3.1,7,7,7h10.9c2,14.8,14.6,26.1,29.9,26.1s27.9-11.2,29.9-26.1h69.2
			c3.2,0,6-0.4,8.4-1.1c1.5,15.3,14.4,27.2,30.1,27.2c16.7,0,30.2-13.6,30.2-30.2c0-9.2-4.2-17.8-11.1-23.4c1.4-0.4,2.6-1.3,3.3-2.6
			c1.1-1.8,1.1-4,0.2-5.8c-0.2-0.4-0.4-0.7-0.6-1c-0.1-0.1-0.1-0.2-0.2-0.3c-0.1-0.2-0.3-0.5-0.4-0.7c-0.1-0.1-0.2-0.3-0.2-0.4
			c-0.1-0.2-0.3-0.4-0.4-0.6c-0.1-0.1-0.2-0.3-0.3-0.4c-0.1-0.2-0.2-0.4-0.4-0.5c-0.1-0.1-0.2-0.3-0.3-0.4c-0.1-0.2-0.2-0.3-0.4-0.5
			c-0.1-0.1-0.2-0.3-0.4-0.4c-0.1-0.2-0.3-0.3-0.4-0.5c-0.1-0.1-0.2-0.3-0.4-0.4c-0.1-0.1-0.3-0.3-0.4-0.4c-0.1-0.1-0.3-0.3-0.4-0.4
			c-0.1-0.1-0.3-0.3-0.4-0.4c-0.1-0.1-0.3-0.3-0.4-0.4c-0.1-0.1-0.3-0.3-0.4-0.4c-0.1-0.1-0.3-0.3-0.4-0.4c-0.1-0.1-0.3-0.2-0.4-0.4
			c-0.2-0.1-0.3-0.3-0.5-0.4c-0.1-0.1-0.3-0.2-0.4-0.3c-0.2-0.1-0.3-0.3-0.5-0.4c-0.1-0.1-0.3-0.2-0.4-0.3c-0.2-0.1-0.3-0.2-0.5-0.4
			c-0.1-0.1-0.3-0.2-0.4-0.3c-0.2-0.1-0.3-0.2-0.5-0.3c-0.1-0.1-0.3-0.2-0.4-0.3c-0.2-0.1-0.3-0.2-0.5-0.3c-0.1-0.1-0.3-0.2-0.4-0.3
			c-0.2-0.1-0.4-0.2-0.5-0.3c-0.1-0.1-0.3-0.2-0.4-0.2c-0.2-0.1-0.4-0.2-0.6-0.3c-0.1-0.1-0.3-0.1-0.4-0.2c-0.2-0.1-0.4-0.2-0.6-0.3
			c-0.1-0.1-0.3-0.1-0.4-0.2c-0.2-0.1-0.4-0.2-0.6-0.3c-0.1,0-0.1-0.1-0.2-0.1c-0.5-0.2-0.9-0.4-1.4-0.5c-0.2-0.1-0.3-0.1-0.5-0.2
			c-0.2-0.1-0.4-0.1-0.5-0.2c-0.2-0.1-0.4-0.1-0.6-0.2c-0.2-0.1-0.4-0.1-0.5-0.2c-0.2-0.1-0.4-0.1-0.6-0.2c-0.2,0-0.4-0.1-0.5-0.1
			c-0.2,0-0.4-0.1-0.6-0.1c-0.2,0-0.4-0.1-0.5-0.1c-0.2,0-0.4-0.1-0.6-0.1c-0.2,0-0.4-0.1-0.5-0.1c-0.2,0-0.4-0.1-0.6-0.1
			c-0.2,0-0.4,0-0.5-0.1c-0.2,0-0.4-0.1-0.6-0.1c-0.2,0-0.4,0-0.5-0.1c-0.2,0-0.4,0-0.6-0.1c-0.2,0-0.4,0-0.5,0c-0.2,0-0.4,0-0.7,0
			c-0.2,0-0.4,0-0.5,0c-0.2,0-0.4,0-0.7,0c-0.2,0-0.4,0-0.5,0c-0.2,0-0.4,0-0.7,0c-0.2,0-0.4,0-0.6,0c-0.1,0-0.2,0-0.2,0l-5.6-9.9
			c-0.8-1.5-2.7-2-4.2-1.1c-1.5,0.8-2,2.7-1.1,4.2l5.4,9.5c-5.4,5.2-20.5,21.7-19.8,43.2c-1.9,0.5-4,0.6-5.7,0.6H98v-4.8
			c0-18.9-15.4-34.3-34.3-34.3H43.8c-3.9,0-7.8,0.6-11.5,1.7c-1.6,0.5-2.5,2.2-2,3.8c0.5,1.6,2.2,2.5,3.8,2c3.1-1,6.3-1.5,9.6-1.5
			h19.8c15.5,0,28.2,12.6,28.2,28.2v4.8H12.5c-0.1,0-0.2,0-0.3-0.1c-0.3-0.1-0.5-0.4-0.5-0.8c0-9.3,4.1-18.2,11.1-24.3
			c1.3-1.1,1.4-3,0.3-4.3c-1.1-1.3-3-1.4-4.3-0.3c-1.7,1.5-3.2,3-4.6,4.7c6.6-19.9,25.4-34.3,47.4-34.3h48.1l-6.3,17.1
			c-3,8.1-1.9,17.2,3,24.3c4.8,7.1,12.4,11.3,20.8,11.6c0.3,0,0.6,0,0.9,0h16.7c6.1,0,11.4-4.3,12.7-10.4
			c5.7-21.2-2.4-49.5-6.9-62.3h7.3l7.5,13.2c0.8,1.5,2.7,2,4.2,1.1c1.5-0.8,2-2.7,1.1-4.2L165,83.3h6.5c3,0,5.4-2.4,5.4-5.4V63.4
			c0-1.7-0.8-3.2-2.1-4.3c-1.3-1-3-1.4-4.7-1l-26,6.5l0.7-0.2l-1-1.2c0.3-0.3,0.5-0.6,0.7-1c0.6-1.2,0.4-2.6-0.5-3.6l-6.5-7.9
			c-1-1.3-2.6-2-4.2-1.9L120.1,49c-2.6,0-4.8,2.2-4.8,4.8V57c0,4.1,3.3,7.4,7.4,7.4l14-0.1l3.1,3.8c-0.5,1-0.8,2.1-0.8,3.3v5.5
			L126,79.3c-1.7,0.3-2.8,1.9-2.5,3.6c0.3,1.5,1.6,2.5,3.1,2.5c0.2,0,0.4,0,0.6-0.1l14.7-2.8c0.7,0.4,1.5,0.6,2.4,0.6h0
			c4,11.1,13.1,40.1,7.4,60.8c0,0.1,0,0.1-0.1,0.2c-0.6,3.2-3.4,5.5-6.7,5.5h-16.7c-0.2,0-0.5,0-0.7,0c-6.5-0.2-12.3-3.5-16-8.9
			c-3.8-5.6-4.6-12.4-2.3-18.8l6.9-18.8h1.4c1,0,2-0.5,2.6-1.2c0.6-0.8,0.9-1.8,0.7-2.8c-0.3-1.7-1.4-5.9-4.1-10
			c-3.6-5.5-8.8-8.5-15-8.5H81.6c-2.1,0-4,1.3-4.7,3.2C76.8,87,73.6,87.2,71,87.2z M165.4,65.7l5.5-1.4v12.8h-5.5V65.7z M122.7,58.3
			c-0.7,0-1.2-0.6-1.2-1.2v-1.9l11.8-0.1l2.6,3.1L122.7,58.3z M145.2,77.1v-5.7c0-0.4,0.2-0.7,0.6-0.8l13.5-3.4v9.9H145.2z
			 M82.6,96.7V87h19.1c6.9,0,10.4,5.7,11.9,9.8L82.6,96.7L82.6,96.7z M31.2,105.8v-2.8h4.9C34.4,103.8,32.8,104.7,31.2,105.8z
			 M15.2,96.8C15.2,96.8,15.2,96.8,15.2,96.8l-0.1-3.4c0,0,0-0.1,0.1-0.1h61.2c0,0,0.1,0,0.1,0.1v3.4c0,0,0,0.1-0.1,0.1H15.2z
			 M65,168.5c-1.7,4.8-6.3,8.2-11.6,8.2s-9.9-3.4-11.6-8.2H65z M53.3,188.4c-11.9,0-21.8-8.5-23.7-19.9h5.7
			c1.9,8.2,9.3,14.3,18,14.3c8.7,0,16.1-6.1,18-14.3h5.7C75.1,179.9,65.2,188.4,53.3,188.4z M165.3,155.9c-0.1,0.3-0.2,0.5-0.3,0.8
			c0,0,0,0,0,0.1c0,0,0,0.1-0.1,0.1c-0.1,0.2-0.2,0.4-0.3,0.6c0,0,0,0.1-0.1,0.1c1.4-18.3,15.5-32.4,18.8-35.5c0,0,0,0,0,0
			c0.1,0,0.3,0,0.4,0c0.2,0,0.4,0,0.6,0c0.1,0,0.3,0,0.4,0c0.2,0,0.4,0,0.6,0c0.1,0,0.3,0,0.4,0c0.2,0,0.4,0,0.6,0
			c0.1,0,0.3,0,0.4,0c0.2,0,0.4,0,0.6,0c0.1,0,0.3,0,0.4,0c0.2,0,0.4,0,0.6,0c0.1,0,0.3,0,0.4,0c0.2,0,0.4,0,0.5,0.1
			c0.1,0,0.3,0,0.4,0.1c0.2,0,0.3,0,0.5,0.1c0.1,0,0.3,0.1,0.4,0.1c0.2,0,0.3,0.1,0.5,0.1c0.1,0,0.3,0.1,0.4,0.1
			c0.2,0,0.3,0.1,0.5,0.1c0.1,0,0.3,0.1,0.4,0.1c0.2,0,0.3,0.1,0.5,0.1c0.2,0,0.3,0.1,0.5,0.1c0.1,0,0.3,0.1,0.4,0.1
			c0.2,0,0.3,0.1,0.5,0.2c0.1,0,0.3,0.1,0.4,0.1c0.2,0.1,0.3,0.1,0.5,0.2c0.1,0.1,0.3,0.1,0.4,0.2c0.2,0.1,0.3,0.1,0.5,0.2
			c0.1,0.1,0.3,0.1,0.4,0.2c0.2,0.1,0.3,0.1,0.5,0.2c0.1,0.1,0.3,0.1,0.4,0.2c0.2,0.1,0.3,0.1,0.5,0.2c0.1,0.1,0.2,0.1,0.4,0.2
			c0.2,0.1,0.3,0.2,0.5,0.2c0.1,0.1,0.2,0.1,0.4,0.2c0.1,0.1,0.3,0.2,0.4,0.3c0.1,0.1,0.2,0.1,0.3,0.2c0.1,0.1,0.3,0.2,0.4,0.3
			c0.1,0.1,0.2,0.1,0.3,0.2c0.1,0.1,0.3,0.2,0.4,0.3c0.1,0.1,0.2,0.2,0.3,0.2c0.1,0.1,0.3,0.2,0.4,0.3c0.1,0.1,0.2,0.2,0.3,0.2
			c0.1,0.1,0.3,0.2,0.4,0.3c0.1,0.1,0.2,0.2,0.3,0.3c0.1,0.1,0.3,0.2,0.4,0.3c0.1,0.1,0.2,0.2,0.3,0.3c0.1,0.1,0.3,0.2,0.4,0.4
			c0.1,0.1,0.2,0.2,0.3,0.3c0.1,0.1,0.2,0.2,0.4,0.4c0.1,0.1,0.2,0.2,0.3,0.3c0.1,0.1,0.2,0.3,0.3,0.4c0.1,0.1,0.2,0.2,0.3,0.3
			c0.1,0.1,0.2,0.3,0.3,0.4c0.1,0.1,0.2,0.2,0.3,0.3c0.1,0.1,0.2,0.3,0.3,0.4c0.1,0.1,0.2,0.2,0.2,0.3c0.1,0.1,0.2,0.3,0.3,0.4
			c0.1,0.1,0.2,0.2,0.2,0.4c0.1,0.1,0.2,0.3,0.3,0.4c0.1,0.1,0.1,0.2,0.2,0.4c0.1,0.2,0.2,0.3,0.3,0.5c0.1,0.1,0.1,0.2,0.2,0.3
			c0.1,0.2,0.2,0.3,0.3,0.5c-0.3,0-0.6,0-0.8,0c-0.1,0-0.2,0-0.3,0c-0.2,0-0.4,0-0.6,0c-0.2,0-0.4,0-0.6,0c-0.1,0-0.2,0-0.3,0
			c-0.3,0-0.5,0-0.8,0c-0.1,0-0.1,0-0.2,0c-0.3,0-0.6,0-0.8,0.1c-0.1,0-0.1,0-0.2,0c-0.3,0-0.6,0-0.9,0.1c-0.1,0-0.1,0-0.2,0
			c-0.3,0-0.6,0.1-1,0.1c0,0-0.1,0-0.1,0c-0.3,0-0.7,0.1-1,0.1c0,0-0.1,0-0.1,0c-0.3,0-0.7,0.1-1,0.1c0,0-0.1,0-0.1,0
			c-0.4,0-0.7,0.1-1.1,0.2c0,0,0,0-0.1,0c-0.4,0.1-0.7,0.1-1.1,0.2c0,0,0,0,0,0c-0.4,0.1-0.7,0.1-1.1,0.2c0,0-0.1,0-0.1,0
			c-0.4,0.1-0.7,0.1-1.1,0.2c0,0-0.1,0-0.1,0c-0.4,0.1-0.7,0.2-1.1,0.2c0,0-0.1,0-0.1,0c-0.4,0.1-0.7,0.2-1.1,0.3c0,0-0.1,0-0.1,0
			c-0.4,0.1-0.7,0.2-1.1,0.3c-0.1,0-0.1,0-0.2,0c-0.4,0.1-0.7,0.2-1.1,0.3c-0.1,0-0.1,0-0.2,0.1c-0.3,0.1-0.7,0.2-1,0.3
			c-0.1,0-0.2,0-0.2,0.1c-0.3,0.1-0.7,0.2-1,0.3c-0.1,0-0.2,0.1-0.3,0.1c-0.3,0.1-0.7,0.2-1,0.4c-0.1,0-0.2,0.1-0.3,0.1
			c-0.3,0.1-0.6,0.2-1,0.4c-0.1,0-0.2,0.1-0.3,0.1c-0.3,0.1-0.6,0.3-0.9,0.4c-0.1,0-0.2,0.1-0.3,0.1c-0.3,0.1-0.6,0.3-0.9,0.4
			c-0.1,0.1-0.3,0.1-0.4,0.2c-0.3,0.1-0.6,0.3-0.9,0.4c-0.1,0.1-0.3,0.1-0.4,0.2c-0.3,0.1-0.6,0.3-0.8,0.4c-0.1,0.1-0.3,0.1-0.4,0.2
			c-0.3,0.1-0.5,0.3-0.8,0.4c-0.2,0.1-0.3,0.2-0.5,0.3c-0.3,0.1-0.5,0.3-0.8,0.5c-0.2,0.1-0.3,0.2-0.5,0.3c-0.2,0.2-0.5,0.3-0.7,0.5
			c-0.2,0.1-0.3,0.2-0.5,0.3c-0.2,0.2-0.5,0.3-0.7,0.5c-0.2,0.1-0.3,0.2-0.5,0.4c-0.2,0.1-0.4,0.3-0.6,0.4c-0.1,0.1-0.2,0.1-0.3,0.2
			c-0.1,0.1-0.2,0.1-0.3,0.2c-0.1,0.1-0.2,0.2-0.3,0.3c-0.2,0.1-0.3,0.3-0.5,0.4c-0.1,0.1-0.2,0.2-0.3,0.3c-0.1,0-0.1,0.1-0.2,0.1
			c-0.3,0.3-0.6,0.5-0.9,0.8c0,0,0,0-0.1,0.1c0,0-0.1,0.1-0.1,0.1C168.4,150,166.5,152.8,165.3,155.9
			C165.3,155.9,165.3,155.9,165.3,155.9z M198.8,158.6l-3-5.7c4.4,1.9,7.6,6.3,7.6,11.4c0,6.8-5.5,12.4-12.4,12.4
			c-6.8,0-12.4-5.5-12.4-12.4c0-1.1,0.1-2.1,0.4-3.1l3.2,6.1c1.2,2.2,3.1,3.8,5.5,4.6c0.9,0.3,1.9,0.4,2.8,0.4c1.5,0,3-0.4,4.3-1.1
			C199.4,168.9,201.2,163.2,198.8,158.6z M192,165.8c-0.8,0.4-1.6,0.5-2.4,0.2c-0.8-0.3-1.5-0.8-1.9-1.6l-5.9-11.3c0,0,0,0,0,0
			l-2.2-4.2c0.4-0.3,0.8-0.5,1.3-0.8c0,0,0.1,0,0.1-0.1c0.4-0.2,0.8-0.5,1.2-0.7c0.1-0.1,0.2-0.1,0.3-0.2c0.4-0.2,0.7-0.4,1.1-0.6
			c0.1-0.1,0.3-0.1,0.4-0.2c0.3-0.1,0.5-0.3,0.8-0.4c0.1-0.1,0.2-0.1,0.4-0.2l2.3,4.3c0,0,0,0.1,0.1,0.1l5.8,11.1
			C194.2,163,193.5,165,192,165.8z M191,188.4c-13.3,0-24.1-10.8-24.1-24.1c0-0.1,0-0.2,0-0.3c0.7-0.6,1.3-1.2,1.8-1.9
			c0,0,0.1-0.1,0.1-0.1c0.2-0.3,0.4-0.5,0.6-0.8c0.1-0.2,0.2-0.3,0.3-0.5c0.1-0.1,0.2-0.3,0.2-0.4c0.1-0.1,0.2-0.3,0.2-0.4
			c0-0.1,0.1-0.1,0.1-0.2c0-0.1,0.1-0.2,0.1-0.3c0-0.1,0.1-0.2,0.1-0.3c0,0,0,0,0-0.1c0-0.1,0.1-0.1,0.1-0.2
			c0.1-0.3,0.2-0.5,0.3-0.8c0,0,0,0,0,0c0-0.1,0-0.1,0.1-0.2c0.3-0.8,0.7-1.5,1.1-2.2c0.7-1.1,1.5-2.1,2.4-3l0.8,1.6
			c-1.9,3-2.9,6.4-2.9,10c0,10.2,8.3,18.5,18.5,18.5c10.2,0,18.5-8.3,18.5-18.5c0-9.8-7.7-17.9-17.4-18.5l-1.1-2.1
			c3.1-0.9,6.1-1.5,8.7-1.9c9.2,3.6,15.4,12.5,15.4,22.5C215.1,177.6,204.3,188.4,191,188.4z"/>
	</g>
	<g>
		<path class="st0" d="M64.6,83.6H22.5c-8.2,0-14.9-6.7-14.9-14.9V47.1c0-8.2,6.7-14.9,14.9-14.9h42.1c8.2,0,14.9,6.7,14.9,14.9
			v21.7C79.4,76.9,72.8,83.6,64.6,83.6z M22.5,38.2c-4.9,0-8.9,4-8.9,8.9v21.7c0,4.9,4,8.9,8.9,8.9h42.1c4.9,0,8.9-4,8.9-8.9V47.1
			c0-4.9-4-8.9-8.9-8.9H22.5z"/>
	</g>
	<g>
		<path class="st0" d="M44.1,73.6c-8.7,0-15.7-7-15.7-15.7s7-15.7,15.7-15.7s15.7,7,15.7,15.7S52.7,73.6,44.1,73.6z M44.1,48.2
			c-5.4,0-9.7,4.4-9.7,9.7c0,5.4,4.4,9.7,9.7,9.7s9.7-4.4,9.7-9.7C53.8,52.6,49.4,48.2,44.1,48.2z"/>
	</g>
</g>
</svg>
