<?xml version="1.0" encoding="utf-8"?>
<!-- Generator: Adobe Illustrator 23.0.3, SVG Export Plug-In . SVG Version: 6.00 Build 0)  -->
<svg version="1.1" id="Слой_1" xmlns="http://www.w3.org/2000/svg" xmlns:xlink="http://www.w3.org/1999/xlink" x="0px" y="0px"
	 viewBox="0 0 226.8 226.8" style="enable-background:new 0 0 226.8 226.8;" xml:space="preserve">
<style type="text/css">
	.st0{fill:#FF0000;}
	.st1{fill:#222220;}
	.st2{fill:#FFFFFF;}
	.st3{fill:#888888;}
	.st4{fill:none;stroke:#FF0000;stroke-width:3;stroke-miterlimit:10;}
	.st5{fill:none;stroke:#888888;stroke-width:18;stroke-linecap:round;stroke-linejoin:round;stroke-miterlimit:10;}
	.st6{fill:#FFFFFF;stroke:#222220;stroke-width:0.25;stroke-miterlimit:10;}
	.st7{fill:#CBCBCB;}
	.st8{fill:#9069AE;}
</style>
<g>
	<path class="st0" d="M187.4,134.9l-0.4-3.4c-3.5-29.3-13.3-38.7-14.9-41.6h0c-18.6-29.4-12.8-53-10.2-60.2c0.5-1.3-0.1-2.7-1.4-3.3
		l-0.6-0.3c-1.5-0.7-3.2,0-3.7,1.5c-2.9,8.1-8.9,33,9.6,63.6c-15.8,5-32.4,7.6-49.4,7.6c-17.4,0-35.4-2.6-54.7-7.7
		c18.4-30.6,12.4-55.3,9.5-63.4c-0.5-1.5-2.3-2.2-3.7-1.5l-0.6,0.3c-1.2,0.6-1.9,2-1.4,3.3C68,37.1,74,61.5,54.4,91.3l0,0
		c-0.9,1.5-2,2.9-3.1,4.5c-0.3,0.5-8,12-10.8,35.7l-0.4,3.4l0.1,0c-1.8,19.4,0.1,40.8,5.9,63.9c0.4,1.5,1.9,2.4,3.4,2l0.6-0.2
		c1.4-0.4,2.3-1.9,1.9-3.3c-5.6-22.6-7.5-43.5-5.7-62.3c12.7,0.7,27.5,5.9,41.3,14.6c13.8,8.7,22,18,23.2,22.9V198
		c0,1.5,1.2,2.7,2.7,2.7h0.6c1.5,0,2.7-1.2,2.7-2.7v-25.6c2.8-11.5,35.7-35.8,64.4-37.4c1.8,18.8-0.1,39.7-5.7,62.3
		c-0.4,1.4,0.5,2.9,1.9,3.3l0.6,0.2c1.5,0.4,3-0.5,3.4-2c5.8-23.1,7.7-44.6,5.9-63.9L187.4,134.9z M113.7,164.9
		c-4.3-6.4-12.5-13.9-22.9-20.4c-14.5-9.1-30.2-14.6-43.8-15.5c2.9-19.8,9.3-29.6,9.3-29.6c0.7-1,1.4-1.9,2-2.8
		c20.5,5.7,39.6,8.4,58.1,8.4c18.2,0,36-2.8,52.8-8.3c1.4,2.1,7.9,9.6,11.3,32.4C153.6,130.7,123.4,150.2,113.7,164.9z"/>
	<path class="st0" d="M113,81.1c4.1,0,7.4-3.3,7.4-7.4c0-4.1-3.3-7.4-7.4-7.4c-4.1,0-7.4,3.3-7.4,7.4C105.7,77.7,109,81.1,113,81.1z
		 M113,69.8c2.1,0,3.9,1.7,3.9,3.9c0,2.1-1.7,3.9-3.9,3.9c-2.1,0-3.9-1.7-3.9-3.9C109.2,71.5,110.9,69.8,113,69.8z"/>
	<path class="st0" d="M207.5,43.5H188v-4.8c0-1.3-0.8-2.4-2-2.8c-1.2-0.4-2.5-0.1-3.4,0.8L167.5,54c-1,1.1-1,2.8,0,4
		c15.5,17.5,14.9,18.8,17.4,18.8c4.4,0,2.7-6.1,3-8.3c14.9-0.9,22.6,2.2,22.6-3V46.5C210.6,44.9,209.2,43.5,207.5,43.5z M204.5,62.4
		h-19.6c-1.7,0-3,1.4-3,3v0l-8.1-9.4l8.1-9.2c0.1,1.6,1.4,2.8,3,2.8h19.6V62.4z"/>
	<path class="st0" d="M40.8,76.5c1.2,0.4,2.5,0.1,3.4-0.9C56.4,60,62.3,57.5,59.3,54c-14.3-15.4-15-19.4-18.5-18.1
		c-3,1.1-1.7,4.8-2,7.7H19.2c-1.7,0-3,1.4-3,3v18.9c0,1.7,1.4,3,3,3h19.6C39.1,71.8,37.7,75.4,40.8,76.5z M22.3,62.4V49.6
		c15.6-0.9,22.3,2.1,22.6-2.8L53,56l-8.1,9.4c-0.1-0.3-0.2-3.1-3-3.1H22.3z"/>
</g>
</svg>
