<?xml version="1.0" encoding="utf-8"?>
<!-- Generator: Adobe Illustrator 23.0.3, SVG Export Plug-In . SVG Version: 6.00 Build 0)  -->
<svg version="1.1" id="Слой_1" xmlns="http://www.w3.org/2000/svg" xmlns:xlink="http://www.w3.org/1999/xlink" x="0px" y="0px"
	 viewBox="0 0 226.8 226.8" style="enable-background:new 0 0 226.8 226.8;" xml:space="preserve">
<style type="text/css">
	.st0{fill:#FF0000;}
	.st1{fill:#222220;}
	.st2{fill:#FFFFFF;}
	.st3{fill:#888888;}
	.st4{fill:none;stroke:#FF0000;stroke-width:3;stroke-miterlimit:10;}
	.st5{fill:none;stroke:#888888;stroke-width:18;stroke-linecap:round;stroke-linejoin:round;stroke-miterlimit:10;}
	.st6{fill:#FFFFFF;stroke:#222220;stroke-width:0.25;stroke-miterlimit:10;}
	.st7{fill:#CBCBCB;}
	.st8{fill:#9069AE;}
</style>
<g>
	<path class="st0" d="M112.7,140.7h1.3c1.3,0,2.4-1.1,2.4-2.4V137c0-1.3-1.1-2.4-2.4-2.4h-1.3c-1.3,0-2.4,1.1-2.4,2.4v1.3
		C110.3,139.6,111.4,140.7,112.7,140.7z"/>
	<path class="st0" d="M203.3,110.9L179,92.7c-1.3-1-3.2-0.7-4.3,0.6c-0.4,0.5-0.6,1.2-0.6,1.8v6.1H162c0-7.9,0.4-15.8,1.1-23.2
		c0.4-4.3,0.9-8.5,1.4-12.3c1.6-12.7,4.5-25.1,8.7-37.2c0.4-1.2-0.2-2.5-1.4-3l-1.2-0.5c-1.3-0.5-2.7,0.1-3.2,1.4
		c-4.3,12.4-7.3,25.3-8.9,38.3c-0.6,3.9-1.1,8.1-1.5,12.6c-0.7,7.6-1.1,15.6-1.1,23.8h-21.3c-1.7,0-3,1.4-3,3v18.2c0,1.7,1.4,3,3,3
		h23c1,7.9,2.5,16.5,4.5,25.6c-15.7,5.3-32.2,8-48.8,7.8c-16.6,0.2-33.1-2.5-48.8-7.8c2-9,3.5-17.6,4.5-25.6h23c1.7,0,3-1.4,3-3
		v-18.2c0-1.7-1.4-3-3-3H70.9c0-8.1-0.4-16.1-1.1-23.8c-0.4-4.4-0.9-8.7-1.5-12.6c-1.7-13.1-4.7-25.9-9-38.4
		c-0.4-1.3-1.9-1.9-3.2-1.4L55,25.6c-1.2,0.5-1.8,1.8-1.4,3c4.1,12.1,7,24.6,8.7,37.2c0.6,3.8,1,7.9,1.4,12.3
		c0.7,7.4,1.1,15.2,1.1,23.2H52.6v-6.1c0-1.7-1.4-3-3-3c-0.7,0-1.3,0.2-1.8,0.6l-24.3,18.2c-1.3,1-1.6,2.9-0.6,4.3
		c0.2,0.2,0.4,0.4,0.6,0.6L47.8,134c0.5,0.4,1.2,0.6,1.8,0.6c1.7,0,3-1.4,3-3v-6.1H63c-1.1,8.3-2.7,17.3-4.9,26.9
		c-0.5,2.1-1,4.1-1.5,6.1c-0.5,2-1,3.9-1.5,5.8c-4.3,16.2-8.8,29-10.6,33.9c-0.4,1.2,0.2,2.6,1.4,3l1.2,0.5c1.2,0.5,2.6-0.1,3.1-1.4
		c1.7-4.7,5.9-16.4,10-31.3c17.2,5.6,35.1,8.3,53.2,8.1c18.1,0.2,36-2.6,53.2-8.1c4.1,14.9,8.2,26.6,10,31.3
		c0.5,1.3,1.9,1.9,3.1,1.4l1.2-0.5c1.2-0.5,1.8-1.8,1.4-3c-1.8-4.9-6.3-17.7-10.6-33.9c-1-3.8-2-7.8-3-11.9
		c-2.2-9.5-3.8-18.5-4.9-26.9h10.4v6.1c0,1.7,1.4,3,3,3c0.7,0,1.3-0.2,1.8-0.6l24.3-18.2c1.3-1,1.6-2.9,0.6-4.3
		C203.7,111.3,203.5,111.1,203.3,110.9z M49.6,119.4c-1.7,0-3,1.4-3,3v3l-16.2-12.1l16.2-12.1v3c0,1.7,1.4,3,3,3h39.5v12.1H49.6z
		 M163.8,158.4c0.3,1.1,0.6,2.3,0.8,3.4c0.1,0.5,0.2,0.9,0.3,1.4c-16.7,5.4-34.1,8.1-51.6,7.9c-17.5,0.2-35-2.5-51.6-7.9
		c0.1-0.5,0.2-0.9,0.4-1.4c0.3-1.1,0.6-2.2,0.8-3.3c0.1-0.4,0.2-0.9,0.3-1.3c16.2,5.4,33.1,8.1,50.1,7.9c17,0.2,34-2.5,50.1-7.9
		C163.6,157.5,163.7,158,163.8,158.4z M180.2,125.5v-3c0-1.7-1.4-3-3-3h-39.5v-12.1h39.5c1.7,0,3-1.4,3-3v-3l16.2,12.1L180.2,125.5z
		"/>
</g>
</svg>
