<?xml version="1.0" encoding="utf-8"?>
<!-- Generator: Adobe Illustrator 23.0.3, SVG Export Plug-In . SVG Version: 6.00 Build 0)  -->
<svg version="1.1" id="Слой_1" xmlns="http://www.w3.org/2000/svg" xmlns:xlink="http://www.w3.org/1999/xlink" x="0px" y="0px"
	 viewBox="0 0 226.8 226.8" style="enable-background:new 0 0 226.8 226.8;" xml:space="preserve">
<style type="text/css">
	.st0{fill:#FF0000;}
	.st1{fill:#222220;}
	.st2{fill:#FFFFFF;}
	.st3{fill:#888888;}
	.st4{fill:none;stroke:#FF0000;stroke-width:3;stroke-miterlimit:10;}
	.st5{fill:none;stroke:#888888;stroke-width:18;stroke-linecap:round;stroke-linejoin:round;stroke-miterlimit:10;}
	.st6{fill:#FFFFFF;stroke:#222220;stroke-width:0.25;stroke-miterlimit:10;}
	.st7{fill:#CBCBCB;}
	.st8{fill:#9069AE;}
</style>
<g>
	<path class="st0" d="M178.4,56c-22.7,0-41.4,17.6-43,39.9c-20.4-1.1-35.8,4.3-45.8,15.8c-4.4,5.1-7.1,10.7-8.7,15.7
		c-6-12.1-17.3-24.6-17.9-25.3c-13-15-13.7-26.2-13.1-31c7.4,1.5,13.6,0.7,18.4-2.6c7.1-4.9,8.4-13.3,8.6-14.9
		c3.5-15-2.5-23.4-8.2-27.8c-6.2-4.7-14.7-6.3-23.2-4.2C25.8,26.5,12.7,40.8,7.6,63C3.8,79.5,5.7,94.3,5.8,94.8
		c5.3,47.5,21.2,75,33.7,89.8c13.7,16.2,26.2,21,26.7,21.1c0.3,0.1,0.7,0.2,1,0.2c0.1,0,0.3,0,0.4,0l15.4-2.1
		c12.9-1.2,37,2.1,37.2,2.1c0.1,0,0.3,0,0.4,0c49.4-0.4,66.5-54.5,69.4-65.3c18.5-5.2,31.3-22,31.3-41.5
		C221.5,75.4,202.2,56,178.4,56z M187,135.2c-1.1,0.3-2,1.1-2.2,2.2c-0.6,2.5-14.9,61.9-63.9,62.4c-2.2-0.3-18.3-2.4-31.2-2.4
		c-2.6,0-5.1,0.1-7.3,0.3c0,0-0.1,0-0.1,0l-14.7,2c-2.6-1.2-12.9-6.3-23.9-19.5c-11.8-14.1-26.9-40.5-32-86.2
		c0-0.1-1.8-14.5,1.7-29.9c4.7-20.1,15.9-32.4,33.4-36.6c6.8-1.7,13.4-0.5,18.2,3.1c6.3,4.9,8.3,12.2,6,21.8c0,0.1-0.1,0.3-0.1,0.4
		c0,0.1-0.8,7.1-6.1,10.7c-3.9,2.7-9.4,3-16.5,1c-1.5-0.4-3.1,0.4-3.6,1.8c-0.3,0.7-6.1,16.8,13.7,39.7c5.3,5.8,19.3,23.2,20,33.2
		c0.1,1.6,1.4,2.8,3,2.8c1.6,0,2.9-1.2,3-2.7c0.9-9.7,7.2-41.1,53.4-37.3c0.8,0.1,1.7-0.2,2.3-0.8s1-1.4,1-2.2
		c0-20.5,16.7-37.1,37.1-37.1c20.4,0,37.1,16.6,37.1,37.1C215.5,116.4,203.8,131.3,187,135.2z"/>
	<path class="st0" d="M148.6,118.4c-6.9,0-12.9,3.6-16.3,9c-3.4-5.4-9.5-9-16.3-9c-10.6,0-19.3,8.7-19.3,19.3
		c0,25.3,32.7,44.5,34.1,45.3c0.5,0.3,1,0.4,1.5,0.4c0.5,0,1-0.1,1.5-0.4c1.4-0.8,34.1-20.1,34.1-45.3
		C167.9,127.1,159.2,118.4,148.6,118.4z M132.2,176.9c-6.2-4-29.6-20.1-29.6-39.2c0-7.3,6-13.3,13.3-13.3s13.3,6,13.3,13.3
		c0,1.7,1.3,3,3,3c1.7,0,3-1.3,3-3c0-7.3,6-13.3,13.3-13.3c7.3,0,13.3,6,13.3,13.3C161.9,156.6,138.5,172.9,132.2,176.9z"/>
</g>
</svg>
