<?xml version="1.0" encoding="utf-8"?>
<!-- Generator: Adobe Illustrator 23.0.3, SVG Export Plug-In . SVG Version: 6.00 Build 0)  -->
<svg version="1.1" id="Слой_1" xmlns="http://www.w3.org/2000/svg" xmlns:xlink="http://www.w3.org/1999/xlink" x="0px" y="0px"
	 viewBox="0 0 226.8 226.8" style="enable-background:new 0 0 226.8 226.8;" xml:space="preserve">
<style type="text/css">
	.st0{fill:#FF0000;}
	.st1{fill:#222220;}
	.st2{fill:#FFFFFF;}
	.st3{fill:#888888;}
	.st4{fill:none;stroke:#FF0000;stroke-width:3;stroke-miterlimit:10;}
	.st5{fill:none;stroke:#888888;stroke-width:18;stroke-linecap:round;stroke-linejoin:round;stroke-miterlimit:10;}
	.st6{fill:#FFFFFF;stroke:#222220;stroke-width:0.25;stroke-miterlimit:10;}
	.st7{fill:#CBCBCB;}
	.st8{fill:#9069AE;}
</style>
<g>
	<path class="st0" d="M72.9,141h-3c-0.3,0-0.5,0.2-0.5,0.5v3c0,0.3,0.2,0.5,0.5,0.5h3c0.3,0,0.5-0.2,0.5-0.5v-3
		C73.4,141.3,73.2,141,72.9,141z"/>
	<path class="st0" d="M67,145h-3c-0.3,0-0.5,0.2-0.5,0.5v3c0,0.3,0.2,0.5,0.5,0.5h3c0.3,0,0.5-0.2,0.5-0.5v-3
		C67.5,145.2,67.3,145,67,145z"/>
	<path class="st0" d="M86.8,145h-3c-0.3,0-0.5,0.2-0.5,0.5v3c0,0.3,0.2,0.5,0.5,0.5h3c0.3,0,0.5-0.2,0.5-0.5v-3
		C87.3,145.2,87.1,145,86.8,145z"/>
	<path class="st0" d="M78.9,147h-3c-0.3,0-0.5,0.2-0.5,0.5v3c0,0.3,0.2,0.5,0.5,0.5h3c0.3,0,0.5-0.2,0.5-0.5v-3
		C79.4,147.2,79.1,147,78.9,147z"/>
	<path class="st0" d="M24.8,73.2c0.2,0.2,0.5,0.2,0.7,0L42,56.7c0.6-0.6,0.8-1.5,0.4-2.2l-1.3-2.9c-1.5-3.4-0.7-7.3,1.9-9.9l15-15
		c0.2-0.2,0.4-0.3,0.7-0.3c0.3,0,0.5,0.1,0.7,0.3c0.4,0.4,0.4,1,0,1.3L47.5,39.9c-0.4,0.4-0.6,0.9-0.6,1.4c0,0.5,0.2,1,0.6,1.4
		l4.2,4.2c0.4,0.4,0.9,0.6,1.4,0.6h0c0.5,0,1-0.2,1.4-0.6l11.9-11.9c0.2-0.2,0.4-0.3,0.7-0.3c0,0,0,0,0,0c0.3,0,0.5,0.1,0.7,0.3
		c0.2,0.2,0.3,0.4,0.3,0.7c0,0.3-0.1,0.5-0.3,0.7L55.9,48.3c-0.4,0.4-0.6,0.9-0.6,1.4c0,0.5,0.2,1,0.6,1.4l4.2,4.2
		c0.8,0.8,2.1,0.8,2.9,0l11.9-11.9c0.2-0.2,0.4-0.3,0.7-0.3c0.3,0,0.5,0.1,0.7,0.3c0.4,0.4,0.4,1,0,1.3l-15,15
		c-2.6,2.6-6.5,3.4-9.9,1.9l-2.9-1.3c-0.8-0.3-1.6-0.2-2.2,0.4L29.6,77.3c-0.2,0.2-0.2,0.5,0,0.7l2.2,2.2c0.1,0.1,0.2,0.1,0.4,0.1
		s0.3-0.1,0.4-0.1L48,64.7l1.7,0.7c4.9,2.1,10.6,1,14.4-2.8l15-15c1.9-1.9,1.9-5.1,0-7.1c-2-1.9-5.1-1.9-7.1,0L61.6,51.1l-1.4-1.3
		l10.5-10.5c0.9-0.9,1.5-2.2,1.5-3.5c0-1.3-0.5-2.6-1.5-3.6c-2-1.8-5-1.8-7,0.1L53.2,42.7l-1.4-1.3l10.5-10.5c1.9-1.9,1.9-5.1,0-7.1
		c-2-1.9-5.1-1.9-7.1,0l-15,15c-3.8,3.8-4.9,9.4-2.8,14.4l0.7,1.6L22.6,70.3c-0.1,0.1-0.1,0.2-0.1,0.4c0,0.1,0.1,0.3,0.1,0.4
		L24.8,73.2z"/>
	<path class="st0" d="M184.9,78.2c-7.4-1.8-15.6,1.2-22.9,8.5c-7.3,7.3-13,17.9-15.9,30c-0.6,2.4-1.1,5.2-1.5,8.2l-5.7,2.9l1.8-8.2
		c0.1-0.5,0-1.1-0.3-1.5c-0.3-0.5-0.7-0.8-1.3-0.9c-0.5-0.1-1,0-1.5,0.2l-13.2,7.8l2.3-7.4c0.2-0.5,0.1-1.1-0.1-1.5
		c-0.2-0.5-0.7-0.8-1.2-1c-0.6-0.2-1.2-0.1-1.7,0.2l-2.1,1.3c-0.2-1.1-0.5-2.1-0.9-3.1c-1.4-4.9-4.2-11.5-12.2-12.3
		c-1-4.7-3.8-8.6-7.8-11.2c-4-2.6-8.8-3.4-13.4-2.4c-0.5,0.1-1,0.2-1.5,0.4c-2.9-4.4-7.4-7.4-12.6-8.4c-5.2-1-10.5,0-14.9,3
		c-2.5,1.7-4.6,4-6.1,6.5c-0.2,0-0.5,0-0.7,0c-7.8,0-14.4,5.6-15.6,13.3c-11.2,4.2-16.9,16.8-12.7,28.1c1.2,3.3,3.3,6.3,5.9,8.6
		c-2.5,5.4-1.7,11.7,2,16.3c-1.2,1.8-1.3,4.1-0.4,6l6.2,13.7c5.6,12.5,12.3,20.9,26.4,20.9h0.1v5.9c0,1.1,0.9,2,2,2h95
		c1.1,0,2-0.9,2-2l0-5.9c14.2,0,20.9-8.4,26.6-21l6.1-13.7c1.3-2.7,0.4-5.9-2-7.6c3.7-7.7,6.7-15.8,8.8-24.1
		c2.9-11,2.8-22.6-0.3-33.5C198.5,86.6,192.5,80.1,184.9,78.2z M158.4,196.5v3.9l-90.9,0l0-3.9L158.4,196.5z M33.5,140
		C33.5,140,33.5,140,33.5,140c0.5-0.9,0.3-2-0.5-2.6c-3.8-2.8-6.2-7-6.9-11.7c-0.7-4.7,0.6-9.4,3.4-13.1c2.3-3,5.3-5.1,8.9-6.3
		c0.8-0.2,1.4-0.9,1.4-1.8c0.5-6.2,5.6-10.9,11.8-10.9c0.5,0,1,0,1.5,0.1c0.9,0.1,1.7-0.3,2.1-1.1c1.8-3.8,5-6.6,9-8
		c4-1.4,8.3-1.1,12,0.7c2.9,1.4,5.3,3.7,6.9,6.6c0.5,0.9,1.6,1.3,2.6,0.9c3.4-1.4,7.1-1.5,10.5-0.1c3.4,1.4,6.1,4,7.5,7.4
		c0.5,1.2,0.8,2.4,1,3.7c0.2,1,1.1,1.7,2.1,1.7c5.1,0,8,2.7,9.9,9.5c0,0.1,0,0.1,0.1,0.2c0.5,1.3,0.8,2.6,0.9,3.9l-7,4.3
		c-0.2-4.4-2.4-8.4-5.9-11c-0.5-8.3-7.5-14.9-15.9-14.9c-1.6,0-3.2,0.2-4.6,0.7c-1.9-3.8-5.2-6.6-9.2-7.9c-4-1.3-8.3-1-12.1,0.9
		c-2.8,1.4-5,3.6-6.5,6.2c-6.9,0.4-12.7,5.1-14.5,11.7c-3.7,2-6.5,5.3-7.8,9.3c-1.3,4-0.9,8.3,1.1,12.1c1.4,2.6,3.4,4.7,5.9,6.2
		c-3.8,4.5-4.8,10.7-2.5,16.1h-2.4c-0.8,0-1.5,0.2-2.1,0.5C31.4,149.6,31.1,144.2,33.5,140z M59.2,130.1c-0.7,0.4-1.4,1-2.2,1.6
		c-1.7-1.2-2.9-3-3.2-5.1c-0.4-2.1,0.1-4.2,1.3-5.9c1.5-2.1,3.9-3.3,6.4-3.3c1.1,0,2-0.9,2-2c0-2.1,0.8-4.1,2.3-5.6
		c1.5-1.5,3.5-2.3,5.6-2.3c3.8,0,7.1,2.7,7.7,6.5c0.1,0.5,0.4,1,0.8,1.3c0.4,0.3,1,0.4,1.5,0.3c0.6-0.1,1.2-0.2,1.8-0.2
		c4.3,0,7.9,3.5,7.9,7.9c0,2-0.8,3.9-2.1,5.3c-1-0.5-2.1-1-3.2-1.4c-0.2-0.1-0.4-0.2-0.6-0.2l-0.6-0.2c-0.8-0.3-1.6-0.5-2.5-0.7
		C74.3,124.2,65.9,125.7,59.2,130.1z M49.9,152.4c0-0.3,0-0.6,0.1-0.8c0-0.2,0.1-0.2,0.1-0.3c1.8-12.6,12.7-22,25.4-22.1
		c2,0,3.9,0.2,5.9,0.7c0.8,0.2,1.5,0.4,2.1,0.6c0.2,0.1,0.4,0.2,0.6,0.2l0.5,0.2c9.3,3.5,15.8,12.1,16.6,22l-3.9,0
		c-1.1-11-10.6-19.5-21.7-19.3c-11.1-0.2-20.7,8.3-21.7,19.3l-3.9,0C49.8,152.8,49.8,152.6,49.9,152.4z M74.9,137.7
		c0.1,0,0.3,0,0.5,0c9-0.2,16.6,6.3,17.7,15.2l-35.4,0C58.8,144.2,66.1,137.7,74.9,137.7z M92.6,130.7c1.7-2.1,2.6-4.8,2.6-7.5
		c0-6.6-5.4-11.9-11.9-11.9c-0.2,0-0.5,0-0.6,0.1c-1.1-3-3.2-5.4-6.1-6.8c-2.9-1.4-6.1-1.6-9.1-0.5c-4.1,1.5-7.1,5.1-7.8,9.4
		c-6.5,1-10.9,7.1-9.9,13.6c0.4,2.9,1.9,5.5,4.2,7.3c-4.3,4.4-7,10-7.9,16c0,0.2-0.1,0.3-0.1,0.3c-0.1,0.7-0.2,1.4-0.2,2.2l-2.4,0
		c-1.1-1.8-1.6-3.8-1.6-5.9c0-3.6,1.6-6.9,4.4-9.2c0.4-0.3,0.7-0.8,0.7-1.4c0.1-0.5-0.1-1.1-0.4-1.5c-0.2-0.3-0.5-0.5-0.9-0.6
		c-3-1.1-5.3-3.3-6.7-6.1c-1.3-2.9-1.5-6.1-0.4-9c1.1-3,3.4-5.4,6.3-6.7c0.6-0.3,1-0.8,1.2-1.4c1.1-5.5,6-9.5,11.6-9.5
		c0.1,0,0.3,0,0.4,0c0.8,0,1.5-0.5,1.8-1.2c2.8-5.9,9.8-8.4,15.7-5.7c2.8,1.3,5,3.8,6.1,6.7c0.4,1.1,1.5,1.6,2.6,1.2
		c0.1,0,0.1,0,0.2-0.1c1.5-0.7,3.2-1.1,4.9-1.1c6.4,0,11.6,5.1,11.8,11.5c-0.2,0.8,0.2,1.6,0.9,2.1c3.2,2,5,5.4,5,9.1
		c0,0.5,0,1-0.1,1.5l-11.7,7C94.4,132,93.5,131.3,92.6,130.7z M35.6,157.2c0.3-0.1,0.6-0.2,1-0.2h152.7c0.6,0,1.2,0.2,1.6,0.7
		c0.4,0.4,0.7,1,0.7,1.6c0,0.3-0.1,0.7-0.2,1l-6.2,13.7c-5.2,11.5-10.8,18.6-22.9,18.6H63.5c-12.1,0-17.7-7.1-22.9-18.6l-6.2-13.7
		C33.9,159.1,34.5,157.7,35.6,157.2z M137.7,132.9l12.1-6.1l-4.9,26.1l-11.7,0.1L137.7,132.9z M198,129.3c-2.1,8.1-5,16.1-8.7,23.7
		L167,153l1.6-6.4l11.8-3.4c0.3-0.1,0.4-0.4,0.3-0.6l-0.8-2.9c0-0.1-0.1-0.2-0.2-0.3c-0.1,0-0.2-0.1-0.2-0.1c0,0-0.1,0-0.1,0
		l-9.5,2.8l2.8-11.4l15.8-5.3c0.1,0,0.2-0.1,0.3-0.3s0.1-0.3,0-0.4l-1-2.9c-0.1-0.3-0.4-0.4-0.6-0.3l-13.4,4.5l3.7-14.8l14.8-3.7
		c0.3-0.1,0.4-0.3,0.4-0.6l-0.7-3c0-0.1-0.1-0.2-0.2-0.3c-0.1-0.1-0.3-0.1-0.4-0.1l-12.7,3.2l3.6-14.3c0.1-0.3-0.1-0.5-0.4-0.6
		l-3-0.7c-0.1,0-0.3,0-0.4,0.1c-0.1,0.1-0.2,0.2-0.2,0.3l-3.2,13.1l-6.7-8.1c-0.2-0.2-0.5-0.2-0.7-0.1l-2.3,1.9
		c-0.1,0.1-0.2,0.2-0.2,0.3c0,0.1,0,0.3,0.1,0.4l8.6,10.3l-3.8,15.6l-7.5-10.5c-0.2-0.2-0.5-0.3-0.7-0.1l-2.5,1.8
		c-0.1,0.1-0.2,0.2-0.2,0.3s0,0.3,0.1,0.4l9.5,13.2l-2.8,11.4l-7.5-7.5c-0.2-0.2-0.5-0.2-0.7,0l-2.2,2.2c-0.1,0.1-0.1,0.2-0.1,0.4
		s0.1,0.3,0.1,0.4l9.2,9.1l-1.7,6.9L149,153l5.5-29.3c0.1-0.5,0-1.1-0.3-1.5c-0.3-0.4-0.8-0.7-1.3-0.8c-0.4-0.1-0.9,0-1.3,0.2
		l-2.7,1.4c0.3-1.9,0.7-3.7,1.1-5.2c5.5-22.8,20.7-38.7,33.9-35.5c6.2,1.5,11.1,7.1,13.9,15.7C200.6,108.1,200.7,119,198,129.3
		C198,129.3,198,129.3,198,129.3z M111.5,152.9l-6.5,0c-0.4-6.3-2.8-12.3-6.9-17.1c0,0,0,0,0-0.1l23.2-13.9L111.5,152.9z
		 M129.2,152.9l-13.5,0.1l6.9-21.9l13.1-7.7L129.2,152.9z"/>
	<path class="st0" d="M113,66C113,66,113,66,113,66c12,0,21.8-9.8,21.8-21.8c0-12-9.8-21.8-21.8-21.8s-21.8,9.8-21.8,21.8
		S100.9,66,113,66z M95.2,44.1c0-9.8,8-17.8,17.8-17.8s17.8,8,17.8,17.8c0,9.8-8,17.8-17.8,17.8C103.2,61.9,95.2,53.9,95.2,44.1z"/>
	<path class="st0" d="M101.5,46.2h9.4v9.4c0,0.3,0.2,0.5,0.5,0.5h3c0.3,0,0.5-0.2,0.5-0.5l0-9.4h9.4c0.3,0,0.5-0.2,0.5-0.5v-3
		c0-0.3-0.2-0.5-0.5-0.5l-9.4,0v-9.4c0-0.3-0.2-0.5-0.5-0.5h-3c-0.3,0-0.5,0.2-0.5,0.5l0,9.4h-9.4c-0.3,0-0.5,0.2-0.5,0.5v3
		C101,45.9,101.3,46.2,101.5,46.2z"/>
	<path class="st0" d="M115,70.3c0-0.3-0.2-0.5-0.5-0.5h-3c-0.3,0-0.5,0.2-0.5,0.5v3c0,0.3,0.2,0.5,0.5,0.5h3c0.3,0,0.5-0.2,0.5-0.5
		V70.3z"/>
	<path class="st0" d="M114.5,77.7h-3c-0.3,0-0.5,0.2-0.5,0.5v3c0,0.3,0.2,0.5,0.5,0.5h3c0.3,0,0.5-0.2,0.5-0.5v-3
		C115,78,114.8,77.7,114.5,77.7z"/>
	<path class="st0" d="M189.7,49.8c1.2-6.6-1.5-14.2-7.1-19.9c-4.2-4.6-10.2-7.4-16.4-7.6c-3.8-0.1-7.6,1.4-10.2,4.1
		c-6.4,6.6-4.8,18.8,3.4,27.3c5.5,5.7,12.9,8.5,19.3,7.3l14.9,15.4c0.1,0.1,0.2,0.2,0.4,0.2c0.1,0,0.3,0,0.3-0.1l2.2-2.1
		c0.1-0.1,0.2-0.2,0.2-0.4c0-0.1,0-0.3-0.1-0.4l-15.7-16.2c-0.5-0.5-1.3-0.7-2-0.5c-5.2,1.4-11.7-0.9-16.5-6
		c-6.7-6.9-8.2-16.7-3.4-21.7c1.9-1.9,4.6-3,7.3-2.9c5.2,0.3,10,2.5,13.5,6.4c4.9,5.1,7.2,11.8,5.8,17.2c-0.2,0.7,0,1.4,0.5,1.9
		l15.7,16.2c0.2,0.2,0.5,0.2,0.7,0l2.2-2.1c0.1-0.1,0.2-0.2,0.2-0.4c0-0.1,0-0.3-0.1-0.4L189.7,49.8z"/>
</g>
</svg>
