<?xml version="1.0" encoding="utf-8"?>
<!-- Generator: Adobe Illustrator 23.0.3, SVG Export Plug-In . SVG Version: 6.00 Build 0)  -->
<svg version="1.1" id="Слой_1" xmlns="http://www.w3.org/2000/svg" xmlns:xlink="http://www.w3.org/1999/xlink" x="0px" y="0px"
	 viewBox="0 0 226.8 226.8" style="enable-background:new 0 0 226.8 226.8;" xml:space="preserve">
<style type="text/css">
	.st0{fill:#FF0000;}
	.st1{fill:#222220;}
	.st2{fill:#FFFFFF;}
	.st3{fill:#888888;}
	.st4{fill:none;stroke:#FF0000;stroke-width:3;stroke-miterlimit:10;}
	.st5{fill:none;stroke:#888888;stroke-width:18;stroke-linecap:round;stroke-linejoin:round;stroke-miterlimit:10;}
	.st6{fill:#FFFFFF;stroke:#222220;stroke-width:0.25;stroke-miterlimit:10;}
	.st7{fill:#CBCBCB;}
	.st8{fill:#9069AE;}
</style>
<g>
	<path class="st0" d="M75.5,92.4c-2.6,0.4-5,1.6-6.8,3.5c-0.3,0.4-0.8,0.6-1.3,0.6c-4.6,0.2-8.9,2.1-12.2,5.4
		c-6.4,6.4-7.3,16.1-1.9,21.5c2.3,2.3,5.5,3.6,8.8,3.6c0.1,0,0.2,0,0.3,0c0.5,0,1,0,1.5-0.1c4.1-0.5,8-2.4,10.9-5.4
		c3.3-3.2,5.3-7.6,5.4-12.2c0-0.5,0.2-1,0.6-1.3c1.9-1.8,3.1-4.2,3.5-6.8c0.3-1.7-0.1-3.5-0.9-5.1l2-2c0.2-0.2,0.2-0.5,0-0.7
		l-2.2-2.2c-0.2-0.2-0.5-0.2-0.7,0l-2,2C79.1,92.4,77.2,92.1,75.5,92.4z M79.3,97.3c0.8,0.9,1.2,2.2,1,3.4c-0.3,1.7-1.1,3.3-2.3,4.5
		c-1.1,1.1-1.8,2.6-1.8,4.1c-0.2,3.6-1.7,6.9-4.2,9.4c-2.2,2.3-5.2,3.8-8.4,4.2c-0.4,0.1-0.9,0.1-1.3,0.1c-4.1,0-7.5-2.9-8.2-7
		c-0.1-0.9-0.1-1.8,0-2.7c0,0,0,0,0,0c0.4-3.2,1.9-6.2,4.2-8.4c2.5-2.6,5.8-4.1,9.3-4.2c1.6,0,3-0.7,4.1-1.8
		c1.2-1.2,2.8-2.1,4.4-2.3c0.2,0,0.5,0,0.7,0c0,0,0.1,0,0.1,0C77.8,96.4,78.7,96.7,79.3,97.3z"/>
	<path class="st0" d="M64.5,104.9c-2.1,0.2-4.2,1.2-5.6,2.6c-1.4,1.4-2.1,3.2-2.1,5.2c0,2,0.8,3.8,2.1,5.2c1.4,1.4,3.2,2.1,5.2,2.1
		h0c2,0,3.8-0.8,5.2-2.1c1.4-1.5,2.3-3.3,2.6-5.3c0.4-2.1-0.2-4.4-1.7-6C68.8,105.2,66.8,104.6,64.5,104.9z M67.8,111.9
		c-0.2,1.1-0.7,2.2-1.4,3c-0.6,0.6-1.4,0.9-2.3,0.9c-0.9,0-1.7-0.3-2.3-0.9c-1.2-1.2-1.2-3.3,0-4.5c1-0.9,2.4-1.5,3.8-1.5
		c0.6,0,1.2,0.2,1.6,0.5C67.8,110.1,68,111,67.8,111.9z"/>
	<path class="st0" d="M100.8,119.5c0.3-2.3,1.1-4.6,2.3-6.6c0.1-0.2,0.1-0.5-0.2-0.7l-2.6-1.7c-0.1-0.1-0.3-0.1-0.4-0.1
		c-0.1,0-0.2,0.1-0.3,0.2c-1.6,2.7-2.6,5.7-3,8.8c-4.6-1.5-9.6,0.3-12.2,4.2c-1.9,2.9-2.7,6.5-2,9.9c1.3,6.7,7.1,15.4,13.8,14.3
		c0.6-0.1,1.1-0.2,1.7-0.4c0.5-0.2,1-0.2,1.5,0c0.5,0.2,1.1,0.3,1.7,0.4c0.4,0.1,0.8,0.1,1.1,0.1c0,0,0,0,0.1,0
		c6.3,0,11.5-8.5,12.6-14.4c0.7-3.4,0-7-2-9.9C110.3,119.8,105.4,118.1,100.8,119.5z M110.9,132.9
		C110.9,132.9,110.9,132.9,110.9,132.9c-1,5.3-5.6,11.6-9,11c-0.4-0.1-0.7-0.2-1-0.3c-1.3-0.5-2.8-0.5-4.2,0c-0.3,0.1-0.7,0.2-1,0.3
		c-0.2,0-0.3,0-0.5,0c-3.3,0-7.5-5.5-8.6-11c-0.5-2.3,0-4.8,1.3-6.8c1-1.5,2.6-2.6,4.4-2.9c0.4-0.1,0.7-0.1,1.1-0.1
		c1.5,0,2.9,0.5,4.1,1.3c0.7,0.5,1.6,0.5,2.3,0c1.5-1.1,3.4-1.5,5.2-1.2c1.8,0.3,3.4,1.4,4.5,2.9
		C110.9,128.1,111.4,130.6,110.9,132.9z"/>
	<path class="st0" d="M63.2,88.6L63.2,88.6c8.5,0,15.5-6.9,15.5-15.5s-6.9-15.5-15.5-15.5s-15.5,6.9-15.5,15.5
		C47.7,81.6,54.7,88.5,63.2,88.6z M63.2,61.7c6.3,0,11.4,5.1,11.4,11.4c0,6.3-5.1,11.4-11.4,11.4c-6.3,0-11.4-5.1-11.4-11.4
		C51.8,66.8,56.9,61.7,63.2,61.7z"/>
	<path class="st0" d="M55.9,72.2C55.9,72.2,55.9,72.2,55.9,72.2c3-0.2,5.3-2.6,5.5-5.5c0-0.1,0-0.3-0.1-0.4
		c-0.1-0.1-0.2-0.2-0.4-0.2h-3.1c-0.2,0-0.5,0.2-0.5,0.4c-0.1,0.8-0.7,1.4-1.5,1.5c-0.2,0-0.4,0.2-0.4,0.5v3.1
		c0,0.1,0.1,0.3,0.2,0.4C55.6,72.2,55.8,72.2,55.9,72.2z"/>
	<path class="st0" d="M96.4,99l-0.5,6.2c0,0.3,0.2,0.5,0.5,0.5l3.1,0.2c0,0,0,0,0,0c0.1,0,0.2,0,0.3-0.1c0.1-0.1,0.2-0.2,0.2-0.3
		l0.4-5.2c1.1,0.2,2.1,0.3,3.2,0.4c1.7,0,3.3-0.3,4.9-0.8c3.1-1,5.5-3.4,6.6-6.4c0.6-1.9,0.6-4-0.1-5.9c1.6-1.2,2.9-2.9,3.5-4.8
		c0.8-2.5,0.5-5.1-0.7-7.4c0.2-0.5,0.4-1,0.6-1.5c0.9-2.8,0.7-5.7-0.5-8.4c-1.1-2.4-3.1-4.3-5.6-5.3c-2.5-1-5.2-0.9-7.7,0.2
		c-0.3,0.1-0.7,0.3-1,0.5c-2.5,1.5-4.4,3.8-5.3,6.6c0,0.1-0.1,0.3-0.1,0.4c-3,1-5.4,3.4-6.5,6.4c-0.6,1.9-0.6,4,0.1,5.9
		c-1.6,1.2-2.9,2.9-3.5,4.8C86.8,90.1,90.2,96.1,96.4,99z M92.4,86.1c0.5-1.5,1.7-2.7,3.1-3.4c0.5-0.2,0.8-0.7,1-1.2
		c0.2-0.5,0.1-1.1-0.1-1.6c-0.8-1.4-1-3-0.6-4.5c0.8-2.1,2.6-3.6,4.9-4.1c0.8-0.2,1.3-0.8,1.5-1.6c0.1-0.4,0.1-0.7,0.3-1.1
		c0.6-1.8,1.8-3.3,3.4-4.2c0.9-0.5,2-0.8,3.1-0.8c0.6,0,1.2,0.1,1.8,0.3c1.6,0.5,2.9,1.7,3.6,3.3c0.8,1.7,0.9,3.6,0.3,5.4
		c-0.2,0.6-0.5,1.1-0.8,1.7c-0.4,0.7-0.4,1.5,0,2.2c1,1.5,1.3,3.3,0.9,5c-0.5,1.5-1.7,2.7-3.1,3.4c-1,0.5-1.4,1.7-0.9,2.8
		c0.8,1.4,1,3,0.6,4.5c-0.7,1.8-2.2,3.3-4.1,3.8c-2.1,0.7-4.3,0.8-6.5,0.2l0.1-1.7c0.5-3.5,1.4-7,2.8-10.3c1-2.5,2.2-4.9,3.5-7.2
		l2.6-4.6c0.1-0.1,0.1-0.3,0-0.4c0-0.1-0.1-0.2-0.2-0.3l-2.7-1.5c-0.2-0.1-0.5-0.1-0.7,0.2l-2.6,4.6c-1.4,2.5-2.6,5-3.7,7.6
		c-1.5,3.7-2.5,7.5-3.1,11.4l0,0.5C93.2,92.4,91.5,89,92.4,86.1L92.4,86.1z"/>
	<path class="st0" d="M82.8,61.7h3.1c0.3,0,0.5-0.2,0.5-0.5v-3.1c0-0.3-0.2-0.5-0.5-0.5h-3.1c-0.3,0-0.5,0.2-0.5,0.5v3.1
		C82.3,61.5,82.5,61.7,82.8,61.7z"/>
	<path class="st0" d="M116.6,107.5h-3.1c-0.3,0-0.5,0.2-0.5,0.5v3.1c0,0.3,0.2,0.5,0.5,0.5h3.1c0.3,0,0.5-0.2,0.5-0.5V108
		C117.1,107.7,116.9,107.5,116.6,107.5z"/>
	<path class="st0" d="M51.8,93.8v-3.1c0-0.3-0.2-0.5-0.5-0.5h-3.1c-0.3,0-0.5,0.2-0.5,0.5v3.1c0,0.3,0.2,0.5,0.5,0.5h3.1
		C51.6,94.3,51.8,94.1,51.8,93.8z"/>
	<path class="st0" d="M76.3,130.5h-3.1c-0.3,0-0.5,0.2-0.5,0.5v3.1c0,0.3,0.2,0.5,0.5,0.5h3.1c0.3,0,0.5-0.2,0.5-0.5V131
		C76.8,130.8,76.5,130.5,76.3,130.5z"/>
	<path class="st0" d="M108.9,151.7h-3.1c-0.3,0-0.5,0.2-0.5,0.5v3.1c0,0.3,0.2,0.5,0.5,0.5h3.1c0.3,0,0.5-0.2,0.5-0.5v-3.1
		C109.4,151.9,109.2,151.7,108.9,151.7z"/>
	<path class="st0" d="M137.3,173.1L137.3,173.1l-18.2-12.8l7-72.4l30.7-30.7c0.4-0.4,0.6-0.9,0.6-1.4c0-0.5-0.2-1.1-0.6-1.5
		c-0.4-0.4-0.9-0.6-1.5-0.6h-25.9l0.5-5.6c0.2-1.9-0.4-3.8-1.6-5.2c-1.2-1.5-2.9-2.4-4.8-2.6c-0.2,0-0.5,0-0.7,0h-21.1v-5.9
		c0-5.2-4.2-9.4-9.4-9.4H72.5c-5.2,0-9.4,4.2-9.4,9.4v5.9H43.8c-1.9,0-3.7,0.7-5.1,2.1s-2.1,3.2-2.1,5.1c0,0.2,0,0.4,0,0.6l1.7,21.1
		h-6.1c-1.9,0-3.6,0.7-5,2.1s-2.1,3.1-2.1,5c0,0.2,0,0.5,0,0.7l4.8,47.6c0.4,3.6,3.4,6.3,7,6.3h6.3l2.4,29.6l-18.2,12.8
		c-0.5,0.4-0.9,1-0.9,1.7v25c0,0.5,0.2,1.1,0.6,1.4c0.4,0.4,0.9,0.6,1.4,0.6h107.5c0.5,0,1.1-0.2,1.4-0.6c0.4-0.4,0.6-0.9,0.6-1.5
		v-25C138.2,174.2,137.9,173.5,137.3,173.1z M67.2,40.3v-5.9c0-2.9,2.4-5.3,5.3-5.3h19.8c2.9,0,5.3,2.4,5.3,5.3v5.9H67.2z
		 M126.8,81.5l2.3-23.7h21.4L126.8,81.5z M31.9,73.2c0.1,0,0.2,0,0.3,0h6.4l0.3,3.6h-4.6c-0.5,0-1.1,0.2-1.4,0.6
		c-0.4,0.4-0.6,0.9-0.6,1.5c0,0.1,0,0.1,0,0.2l3.8,42.2c0.1,1.1,1,1.9,2,1.9h4.5l0.3,3.6h-6c-1.5,0-2.8-1.1-2.9-2.6l-4.8-47.6
		C29.2,74.8,30.3,73.4,31.9,73.2z M40.1,119l-3.5-38.1h2.6l3.1,38.1H40.1z M82,156.2c-1.8,1.3-3.8,2.3-6,2.8l-0.7-9.5L82,156.2z
		 M125.3,54l-10.2,105.3H84.7c0.6-0.5,1.2-1,1.8-1.6c0.4-0.4,0.6-0.9,0.6-1.4c0-0.4-0.1-0.7-0.3-1.1c0.1-0.2,0.1-0.5,0-0.7
		c-0.2-0.2-0.4-0.2-0.6-0.1L62,130.4c-0.8-0.8-2.1-0.8-2.9,0c-7.5,7.4-7.6,19.6-0.2,27.1c0.6,0.6,1.3,1.2,2,1.8H49.7L41.2,54H125.3z
		 M71.9,159.3c-3-0.2-5.9-1.2-8.3-3.1l7.5-7.5L71.9,159.3z M57.9,140.9c0.5-2.2,1.4-4.3,2.8-6l6.8,6.8L57.9,140.9z M57.6,145
		l10.6,0.8l-7.5,7.5C58.8,150.9,57.8,148,57.6,145z M41.5,45.4C41.5,45.4,41.5,45.4,41.5,45.4c0.6-0.6,1.4-1,2.2-1h79.1
		c0.8,0,1.6,0.3,2.2,0.9c0.6,0.6,0.9,1.3,0.9,2.2c0,0.1,0,0.2,0,0.3l-0.2,2.1H40.9l-0.2-2.2C40.7,46.8,40.9,46,41.5,45.4z
		 M134.1,175.9v21.8H30.7v-21.8l17.8-12.5l67.8,0L134.1,175.9z"/>
	<path class="st0" d="M82.4,194.2c7.5,0,13.6-6.1,13.6-13.6c0-7.5-6.1-13.6-13.6-13.6h0c-7.5,0-13.6,6.1-13.6,13.6
		S74.9,194.2,82.4,194.2z M82.4,171.1c5.2,0,9.5,4.2,9.5,9.5c0,5.2-4.3,9.5-9.5,9.5c-5.2,0-9.5-4.2-9.5-9.5
		C72.9,175.4,77.2,171.1,82.4,171.1z"/>
	<path class="st0" d="M82.4,186.5c3.2,0,5.9-2.6,5.9-5.9c0-3.2-2.6-5.9-5.9-5.9h0c-3.2,0-5.9,2.6-5.9,5.9S79.2,186.5,82.4,186.5z
		 M80.6,180.6c0-1,0.8-1.8,1.8-1.8s1.8,0.8,1.8,1.8c0,1-0.8,1.8-1.8,1.8l0,0.5v-0.5C81.4,182.4,80.6,181.6,80.6,180.6z"/>
	<path class="st0" d="M43.9,174.8v11.5c0,1.1,0.9,2.1,2,2.1h7.7c0.5,0,1.1-0.2,1.4-0.6c0.4-0.4,0.6-0.9,0.6-1.4v-11.5
		c0-0.5-0.2-1.1-0.6-1.4c-0.3-0.3-0.6-0.5-1-0.5c0-0.2-0.2-0.4-0.5-0.4h0c-0.2,0-0.4,0.2-0.5,0.4h-7.2
		C44.8,172.8,43.9,173.7,43.9,174.8z M48,184.3v-7.4h3.6v7.4H48z"/>
	<path class="st0" d="M111.2,188.4h7.7c1.1,0,2-0.9,2-2v-11.5c0-1.1-0.9-2.1-2-2.1h-7.7c-1.1,0-2,0.9-2.1,2v11.5
		c0,0.5,0.2,1.1,0.6,1.4C110.1,188.2,110.6,188.4,111.2,188.4z M113.3,184.3v-7.4h3.6v7.4H113.3z"/>
	<path class="st0" d="M151.2,79.8c-1.3,3.2-0.5,6.8,1.9,9.3h0c1.7,1.7,3.9,2.5,6.1,2.5c2.2,0,4.4-0.8,6.1-2.5
		c2.4-2.4,3.2-6.1,1.9-9.3l-6.1-15.2c-0.4-1-1.6-1.6-2.7-1.1c-0.5,0.2-0.9,0.6-1.1,1.1L151.2,79.8z M163.4,81.3
		c0.9,2.3-0.2,4.9-2.5,5.8c-0.5,0.2-1.1,0.3-1.7,0.3c-1.9,0-3.5-1.1-4.2-2.8c-0.4-1.1-0.4-2.3,0-3.3v0l4.2-10.4L163.4,81.3z"/>
	<path class="st0" d="M188,88.3c-7.4,0-13.5,6-13.6,13.4h-3L182,67l14.1-5.3c0.1,0,0.2-0.1,0.3-0.3c0.1-0.1,0.1-0.3,0-0.4l-1.1-2.9
		c-0.1-0.3-0.4-0.4-0.6-0.3l-15,5.6c-0.6,0.2-1.1,0.7-1.2,1.3l-11.2,36.9h-19.5c-1.1,0-2,0.9-2.1,2v44.2c0,12.1,9.1,22,21.1,23.1v19
		H163c-5.4,0-9.7,4.4-9.7,9.7c0,0.5,0.2,1.1,0.6,1.4c0.4,0.4,0.9,0.6,1.4,0.6h26.9c0.5,0,1.1-0.2,1.4-0.6c0.4-0.4,0.6-0.9,0.6-1.5
		c0-5.4-4.4-9.7-9.7-9.7h-3.7v-19c12-1.1,21.1-11,21.1-23.1v-33.1c3.4-1,6.3-3.4,8-6.5c1.7-3.2,2.1-6.9,1.1-10.3
		C199.3,92.3,194,88.3,188,88.3z M157.8,197.7c0.8-2.1,2.9-3.6,5.2-3.6h11.5c2.3,0,4.4,1.4,5.2,3.6H157.8z M166.2,119l4-13.2h4.8
		c1.7,5.7,6.9,9.5,12.8,9.6v3.6H166.2z M168.8,167c-10.5,0-19.1-8.6-19.1-19.1v-24.8h11l-7.2,23.9c0,0.1,0,0.3,0,0.4
		c0.1,0.1,0.2,0.2,0.3,0.2l3,0.9c0.3,0.1,0.5-0.1,0.6-0.3l7.6-25.1h22.9v24.8C187.9,158.4,179.3,167,168.8,167z M162,119h-12.2
		v-13.2h16.2L162,119z M178.8,99.8c0.8-3.6,3.6-6.4,7.2-7.2v7.2H178.8z M185.9,103.9v7.2c-3.6-0.8-6.4-3.6-7.2-7.2H185.9z
		 M197.2,103.9c-0.8,3.6-3.6,6.4-7.2,7.2v-7.2H197.2z M190,99.8v-7.2c3.6,0.8,6.4,3.6,7.2,7.2H190z"/>
</g>
</svg>
