<?xml version="1.0" encoding="utf-8"?>
<!-- Generator: Adobe Illustrator 23.0.3, SVG Export Plug-In . SVG Version: 6.00 Build 0)  -->
<svg version="1.1" id="Слой_1" xmlns="http://www.w3.org/2000/svg" xmlns:xlink="http://www.w3.org/1999/xlink" x="0px" y="0px"
	 viewBox="0 0 226.8 226.8" style="enable-background:new 0 0 226.8 226.8;" xml:space="preserve">
<style type="text/css">
	.st0{fill:#FF0000;}
	.st1{fill:#222220;}
	.st2{fill:#FFFFFF;}
	.st3{fill:#888888;}
	.st4{fill:none;stroke:#FF0000;stroke-width:3;stroke-miterlimit:10;}
	.st5{fill:none;stroke:#888888;stroke-width:18;stroke-linecap:round;stroke-linejoin:round;stroke-miterlimit:10;}
	.st6{fill:#FFFFFF;stroke:#222220;stroke-width:0.25;stroke-miterlimit:10;}
	.st7{fill:#CBCBCB;}
	.st8{fill:#9069AE;}
</style>
<g>
	<path class="st0" d="M162.4,126c26.5,0,48-21.5,48-48s-21.5-48-48-48s-48,21.5-48,48c0,4.1,0.5,8.2,1.5,12
		c-1.9,2.4-3.3,5.3-3.7,8.5h-11.7c5.4-6.6,7.1-20.4,7.3-22.1l0.3-2.5l-2.5-0.4C103.7,73.3,87,71,80,76.4c-0.2,0.2-0.5,0.4-0.7,0.6
		c-2.8-4.9-7.8-8.1-13.3-8.7c-3.1-8.6-11.9-12-13.7-12.6c-1.3-0.5-2.8,0.1-3.3,1.4c-0.5,1.3,0.1,2.8,1.4,3.3c0.1,0,0.1,0,0.2,0.1
		c4.1,1.4,7.6,4.3,9.9,8c-9.5,2-15.7,11.3-13.7,20.8c0.7,3.5,2.5,6.7,5,9.2H39c-2.8,0-5,2.3-5,5v68H23.9c-4.2,0-7.6,3.4-7.6,7.6
		c0,4.2,3.4,7.6,7.6,7.6h23.6l5,10.1h78.6l5-10.1h23.6c4.2,0,7.6-3.4,7.6-7.6c0-4.2-3.4-7.6-7.6-7.6h-12.6v-48
		C152.1,125.1,157.1,126,162.4,126z M205.5,78c0,10.1-3.5,19.3-9.3,26.7l-16.1-16.1h3.1c5.5,0,9.9-4.4,9.9-9.9V60.9
		c0-5.5-4.4-9.9-9.9-9.9h-17.8c-5.5,0-9.9,4.4-9.9,9.9V64l-19.8-19.8c7.3-5.8,16.6-9.3,26.7-9.3C186.2,34.9,205.5,54.3,205.5,78z
		 M165.4,88.7h1.4v6.5c0,2.8-2.2,5-5,5h-17.8c-2.8,0-5-2.2-5-5V77.3c0-2.8,2.2-5,5-5h11.6v6.5C155.5,84.2,159.9,88.7,165.4,88.7z
		 M165.4,83.8c-2.8,0-5-2.2-5-5v-2.9l7.9,7.9H165.4z M160.4,68.9v-8c0-2.8,2.2-5,5-5h17.8c2.8,0,5,2.2,5,5v17.8c0,2.8-2.2,5-5,5h-8
		L160.4,68.9z M132,47.5l19.9,19.9h-8c-5.5,0-9.9,4.4-9.9,9.9v17.8c0,5.5,4.4,9.9,9.9,9.9h17.8c5.5,0,9.9-4.4,9.9-9.9v-6.5h1.5
		l19.7,19.7c-7.8,7.8-18.6,12.7-30.5,12.7c-23.8,0-43.1-19.3-43.1-43.1C119.3,66.1,124.2,55.3,132,47.5z M83.2,80.5
		c3.5-2.7,12.8-2.8,19.3-2.2c-1,6.4-3.4,15.4-6.9,18.1c-2,1.2-4.2,2-6.5,2.1h-8.5L91,90.5c1.1-0.9,1.3-2.4,0.4-3.5
		c-0.9-1.1-2.4-1.3-3.5-0.4L77,94.9C78.2,89.1,80.4,82.7,83.2,80.5z M51.6,86c0-6.1,4.4-11.3,10.5-12.4c0.1,1.4-0.1,2.8-0.4,4.2
		c-0.3,1.4,0.5,2.7,1.9,3c0,0,0,0,0,0l0.6,0.1c1.2,0,2.2-0.8,2.5-1.9c0.4-1.7,0.6-3.5,0.5-5.2c4.1,1,7.5,4,8.9,8
		c-2.2,4.5-3.7,9.4-4.5,14.3c-2.1,1.6-4.7,2.5-7.4,2.5C57.3,98.5,51.6,92.9,51.6,86z M39,121.2h85.6v10.1c-2.7-0.9-5.7-0.3-7.8,1.7
		l-3,3.1c-1,1-2.5,1-3.5,0l-3-3c-3-2.8-7.7-2.8-10.6,0l-3,3c-1,1-2.5,1-3.5,0l-3-3c-3-2.8-7.7-2.8-10.6,0l-3,3c-1,1-2.5,1-3.5,0
		l-3-3c-3-2.8-7.7-2.8-10.6,0l-3,3c-1,1-2.5,1-3.5,0l-3-3c-2.1-2-5.1-2.7-7.8-1.8V121.2z M39,137.3l0.8-0.8c1-1,2.5-1,3.5,0l3,3
		c3,2.8,7.7,2.8,10.6,0l3-3c1-1,2.5-1,3.5,0l3,3c3,2.8,7.7,2.8,10.6,0l3-3c1-1,2.5-1,3.5,0l3,3c3,2.8,7.7,2.8,10.6,0l3-3
		c1-1,2.5-1,3.5,0l3,3c3,2.8,7.7,2.8,10.6,0l3-3c1-1,2.5-1,3.5,0l0.8,0.8v14.1c-2.7-0.9-5.8-0.3-7.8,1.8l-3.1,3c-1,1-2.5,1-3.5,0
		l-3-3c-2.9-2.9-7.7-2.9-10.6,0l-3,3c-1,1-2.5,1-3.5,0l-3-3c-3-2.8-7.7-2.8-10.6,0l-3,3c-1,1-2.5,1-3.5,0l-3-3
		c-3-2.8-7.7-2.8-10.6,0l-3,3c-1,1-2.5,1-3.5,0l-3-3c-2.1-2-5.1-2.7-7.8-1.8V137.3z M39,157.5l0.8-0.8c1-1,2.5-1,3.5,0l3,3
		c3,2.8,7.7,2.8,10.6,0l3-3c1-1,2.5-1,3.5,0l3,3c3,2.8,7.7,2.8,10.6,0l3-3c1-1,2.5-1,3.5,0l3,3c3,2.8,7.7,2.8,10.6,0l3-3
		c1-1,2.5-1,3.5,0l3,3c3,2.8,7.7,2.8,10.6,0l3-3c1-1,2.5-1,3.5,0l0.8,0.8v14.1H39V157.5z M128.1,191.7H55.7l-2.5-5h77.4L128.1,191.7
		z M159.9,176.6c1.4,0,2.5,1.1,2.5,2.5s-1.1,2.5-2.5,2.5H23.9c-1.4,0-2.5-1.1-2.5-2.5s1.1-2.5,2.5-2.5H159.9z M142.3,171.6h-12.6
		v-50.3c0-2.8-2.3-5-5-5H39v-12.6h36.3c2.5,0.3,5,0.4,7.6,0.4c2.2,0,4.4-0.1,6.6-0.4h22.7c2.5,0,4.7-1.8,5-4.3
		c0.1-1.1,0.4-2.1,0.8-3c4.6,11.1,13.3,20.2,24.2,25.2V171.6z"/>
	<rect x="49.1" y="126.2" class="st0" width="5" height="5"/>
	<rect x="89.4" y="126.2" class="st0" width="5" height="5"/>
	<rect x="109.5" y="123.7" class="st0" width="5" height="5"/>
	<rect x="69.3" y="123.7" class="st0" width="5" height="5"/>
	<rect x="41.6" y="164" class="st0" width="5" height="5"/>
	<rect x="79.3" y="164" class="st0" width="5" height="5"/>
	<rect x="99.5" y="161.5" class="st0" width="5" height="5"/>
	<rect x="59.2" y="161.5" class="st0" width="5" height="5"/>
	<rect x="117.1" y="164" class="st0" width="5" height="5"/>
</g>
</svg>
