<?xml version="1.0" encoding="utf-8"?>
<!-- Generator: Adobe Illustrator 23.0.3, SVG Export Plug-In . SVG Version: 6.00 Build 0)  -->
<svg version="1.1" id="Слой_1" xmlns="http://www.w3.org/2000/svg" xmlns:xlink="http://www.w3.org/1999/xlink" x="0px" y="0px"
	 viewBox="0 0 226.8 226.8" style="enable-background:new 0 0 226.8 226.8;" xml:space="preserve">
<style type="text/css">
	.st0{fill:#FF0000;}
	.st1{fill:#222220;}
	.st2{fill:#FFFFFF;}
	.st3{fill:#888888;}
	.st4{fill:none;stroke:#FF0000;stroke-width:3;stroke-miterlimit:10;}
	.st5{fill:none;stroke:#888888;stroke-width:18;stroke-linecap:round;stroke-linejoin:round;stroke-miterlimit:10;}
	.st6{fill:#FFFFFF;stroke:#222220;stroke-width:0.25;stroke-miterlimit:10;}
	.st7{fill:#CBCBCB;}
	.st8{fill:#9069AE;}
</style>
<g>
	<path class="st0" d="M162.3,170L135,151.7c-3.7-2.5-8.8-1.7-11.5,1.9l-8,10.2c-0.8,1.1-2.3,1.4-3.5,0.7l-1.5-0.8
		c-5-2.7-11.2-6.1-23.7-18.6c-1.4-1.4-2.6-2.6-3.7-3.8l-5.2-5.8c-3.8-4.3-7-9-9.7-14.1l-0.8-1.5c-0.7-1.2-0.3-2.7,0.7-3.5l10.2-8
		c3.5-2.8,4.4-7.8,1.9-11.5l-6.9-10.3l-5.8-8.7l-5.5-8.3c-2.5-3.8-7.6-5-11.6-2.6l-11.4,6.9c-3.7,2.2-6.5,5.8-7.7,9.9
		c-4.2,15.2-1.1,41.3,37.3,79.6C99,193.8,121.7,202,137.4,202c3.6,0,7.2-0.5,10.7-1.4c4.2-1.2,7.7-3.9,9.9-7.6l6.9-11.4
		C167.3,177.6,166.1,172.5,162.3,170z M159.9,178.5l-6.9,11.4c-1.4,2.5-3.8,4.3-6.5,5c-13.7,3.8-37.6,0.6-74-35.8
		c-36.4-36.4-39.5-60.3-35.8-74c0.8-2.7,2.6-5.1,5-6.5l11.4-6.9c1.3-0.8,2.9-0.4,3.8,0.8l18.2,27.3c0.8,1.2,0.5,2.9-0.6,3.8l-10.2,8
		c-3.4,2.6-4.3,7.2-2.3,10.9l0.8,1.5c2.9,5.3,6.5,11.9,19.6,25s19.7,16.7,25,19.6l1.5,0.8c3.7,2.1,8.4,1.1,10.9-2.3l8-10.2
		c0.9-1.2,2.5-1.4,3.8-0.6l27.3,18.2C160.3,175.6,160.7,177.3,159.9,178.5z"/>
	<path class="st0" d="M141.7,24.8c-30.5,0-55.3,24.8-55.3,55.3c0,10.7,3.1,21.1,8.9,30.1c0,1.4-1.3,5.6-2.1,8.1
		c-2.4,7.5-3.5,11.5-1.3,13.9c2.8,3,7,0.2,12.3-3.3c1.7-1.1,4.5-3,5.8-3.4c9.3,6.5,20.2,9.9,31.6,9.9c30.5,0,55.3-24.8,55.3-55.3
		C197,49.6,172.1,24.8,141.7,24.8z M141.7,129.4c-10.4,0-20.4-3.2-28.8-9.3c-0.8-0.5-1.6-0.8-2.4-0.8c-2.5,0-5.6,2-9.5,4.6
		c-1.1,0.7-2.6,1.7-3.9,2.5c0.5-1.9,1.3-4.5,1.8-6.2c2.2-6.8,3.2-10.5,1.7-12.9c-5.3-8.1-8.1-17.4-8.1-27.1
		c0-27.2,22.1-49.3,49.3-49.3S191,52.9,191,80.1S168.8,129.4,141.7,129.4z"/>
	<path class="st0" d="M141.7,68.8c-6.1,0-11,4.9-11,11V110c0,6.1,4.9,11,11,11s11-4.9,11-11V79.8C152.7,73.7,147.7,68.8,141.7,68.8z
		 M146.7,110c0,2.8-2.2,5-5,5s-5-2.2-5-5V79.8c0-2.8,2.2-5,5-5s5,2.2,5,5V110z"/>
	<path class="st0" d="M141.7,42.3c-6.1,0-11,4.9-11,11s4.9,11,11,11s11-4.9,11-11S147.7,42.3,141.7,42.3z M141.7,58.3
		c-2.8,0-5-2.2-5-5s2.2-5,5-5s5,2.2,5,5S144.4,58.3,141.7,58.3z"/>
</g>
</svg>
