<?xml version="1.0" encoding="utf-8"?>
<!-- Generator: Adobe Illustrator 23.0.3, SVG Export Plug-In . SVG Version: 6.00 Build 0)  -->
<svg version="1.1" id="Слой_1" xmlns="http://www.w3.org/2000/svg" xmlns:xlink="http://www.w3.org/1999/xlink" x="0px" y="0px"
	 viewBox="0 0 221.7 221.9" style="enable-background:new 0 0 221.7 221.9;" xml:space="preserve">
<style type="text/css">
	.st0{fill:#E30613;}
	.st1{fill:#020203;}
</style>
<g>
	<circle class="st0" cx="88.1" cy="133.7" r="88.1"/>
	<g>
		<path class="st1" d="M108.9,33l4-14.9l8.3,18.2c2.5,0.9,5,1.8,7.5,2.9l8-30.2c-2.8-1.1-5.6-2.1-8.4-3l-4.2,15.8l-8.7-19.1
			c-2.4-0.5-4.9-1-7.3-1.3l-8,30.2C103,32,105.9,32.4,108.9,33z"/>
		<path class="st1" d="M142.7,46.6l8.9-12.6l1.4,19.9c2.1,1.7,4.1,3.5,6,5.4l18.1-25.5c-2.2-2-4.5-3.9-6.9-5.7l-9.4,13.3l-1.4-20.9
			c-2.1-1.3-4.2-2.6-6.4-3.8l-18.1,25.5C137.5,43.5,140.1,45,142.7,46.6z"/>
		<path class="st1" d="M178.7,85l5.9-4.3L175,67.4l4-2.9l8.2,11.3l6-4.4L185,60.2l3.6-2.6l9.3,12.8l5.7-4.1c-1.9-3.3-4-6.4-6.2-9.6
			l-2.2-3.1c-1.9-2.5-3.9-5-6.1-7.5L164,64.3C169.8,70.7,174.7,77.7,178.7,85z"/>
		<path class="st1" d="M184.9,99.1l7-2.2l1.5,4.6l-5.5,7.2c0.7,2.9,1.3,5.7,1.8,8.6l0.6,1.8l7.7-10c1.3,1.3,2.9,2.2,4.6,2.7
			c2.1,0.6,4.3,0.5,6.6-0.2c2.3-0.7,4.2-1.9,5.5-3.6c1.4-1.6,2.2-3.7,2.5-6c0.2-2,0-4.2-0.6-6.5c-1.4-4.8-3.2-9.5-5.1-14.2
			l-29.7,9.4C182.8,93.4,183.9,96.2,184.9,99.1z M207.2,92l1.4,4.4c0.6,1.8,0.6,3.2,0.2,4.3c-0.4,1-1.3,1.7-2.6,2.1
			c-1.3,0.4-2.4,0.3-3.3-0.3c-1-0.6-1.8-1.8-2.3-3.6l-1.4-4.4L207.2,92z"/>
		<path class="st1" d="M209.5,134l12.2-7.4c-0.2-3.1-0.5-6.2-0.8-9.3l-19.7,11.9l-10.4,0c0.1,3,0.1,6,0,9l10.3,0l19.7,11.8
			c0.4-2.9,0.6-5.8,0.8-8.7L209.5,134z"/>
		<path class="st1" d="M92.7,31v-31C91.8,0,91,0,90.2,0h-4c-0.8,0-1.7,0-2.5,0.1v31C86.6,30.9,89.7,30.9,92.7,31z"/>
	</g>
</g>
</svg>
